{"glyphs":{"0":{"ha":540,"x_min":15,"x_max":525,"o":"m 15 731 q 81 922 15 858 q 267 986 147 986 q 456 922 388 986 q 525 731 525 857 l 525 243 q 456 51 525 117 q 267 -14 388 -14 q 81 51 147 -14 q 15 243 15 115 l 15 731 m 238 225 q 247 190 238 200 q 269 179 257 179 q 293 190 283 179 q 303 225 303 200 l 303 747 q 293 783 303 774 q 269 793 283 793 q 247 783 257 793 q 238 747 238 774 l 238 225 z "},"1":{"ha":326,"x_min":17,"x_max":306,"o":"m 83 0 l 83 767 l 76 779 l 17 779 l 17 972 l 306 972 l 306 0 l 83 0 z "},"2":{"ha":540,"x_min":17,"x_max":524,"o":"m 17 732 q 84 920 17 854 q 274 986 151 986 q 460 922 396 986 q 524 732 524 857 l 524 717 q 494 503 524 594 q 390 368 464 411 l 351 347 q 292 310 314 325 q 258 283 269 296 q 242 259 246 271 q 239 231 239 247 l 239 213 l 522 213 l 522 0 l 17 0 l 17 192 q 24 297 17 254 q 46 370 31 339 q 87 424 61 401 q 150 468 113 446 l 182 486 q 246 525 222 510 q 282 555 269 540 q 298 585 294 569 q 301 626 301 601 l 301 747 q 271 794 301 794 q 239 747 239 794 l 239 574 l 17 574 l 17 732 z "},"3":{"ha":540,"x_min":15,"x_max":525,"o":"m 303 747 q 271 793 303 793 q 238 747 238 793 l 238 639 l 15 639 l 15 731 q 83 919 15 853 q 274 986 150 986 q 460 922 396 986 q 525 731 525 857 l 525 717 q 513 620 525 661 q 482 552 501 579 q 438 511 463 525 q 389 494 414 497 l 389 479 q 438 464 414 478 q 482 422 463 450 q 513 353 501 394 q 525 256 525 311 l 525 242 q 460 51 525 115 q 274 -14 396 -14 q 83 53 150 -14 q 15 242 15 119 l 15 333 l 238 333 l 238 225 q 271 179 238 179 q 303 225 303 179 l 303 294 q 300 346 303 325 q 288 379 297 367 q 263 397 279 392 q 218 401 246 401 l 192 401 l 192 569 l 218 569 q 263 575 246 569 q 288 593 279 581 q 300 626 297 606 q 303 678 303 647 l 303 747 z "},"4":{"ha":533,"x_min":17,"x_max":517,"o":"m 517 972 l 517 0 l 294 0 l 294 261 l 17 261 l 17 972 l 239 972 l 239 454 l 294 454 l 294 972 l 517 972 z "},"5":{"ha":539,"x_min":15,"x_max":524,"o":"m 17 972 l 496 972 l 496 779 l 239 779 l 239 676 l 244 676 q 309 709 276 699 q 371 719 342 719 q 483 667 443 719 q 524 535 524 615 l 524 242 q 460 51 524 117 q 274 -14 396 -14 q 83 53 150 -14 q 15 242 15 119 l 15 386 l 238 386 l 238 225 q 269 179 238 179 q 301 225 301 179 l 301 517 q 292 551 301 540 q 272 561 283 561 q 252 552 261 561 q 239 526 243 543 l 239 422 l 17 422 l 17 972 z "},"6":{"ha":540,"x_min":15,"x_max":525,"o":"m 301 621 l 301 747 q 292 783 301 774 q 269 793 282 793 q 247 783 256 793 q 238 746 238 774 l 238 554 l 253 554 q 301 588 271 578 q 360 599 331 599 q 423 587 393 599 q 476 551 453 575 q 512 492 499 528 q 525 406 525 456 l 525 243 q 456 51 525 117 q 265 -14 388 -14 q 81 50 147 -14 q 15 243 15 114 l 15 731 q 81 922 15 858 q 265 986 147 986 q 455 922 386 986 q 524 731 524 857 l 524 621 l 301 621 m 238 225 q 247 190 238 200 q 269 179 256 179 q 293 190 283 179 q 303 225 303 200 l 303 346 q 294 382 303 372 q 271 392 285 392 q 247 382 256 392 q 238 346 238 372 l 238 225 z "},"7":{"ha":481,"x_min":17,"x_max":464,"o":"m 17 972 l 464 972 l 464 779 l 289 0 l 61 0 l 233 768 l 225 779 l 17 779 l 17 972 z "},"8":{"ha":542,"x_min":15,"x_max":528,"o":"m 17 743 q 73 924 17 861 q 267 986 129 986 q 467 922 407 986 q 526 743 526 858 l 526 714 q 515 635 526 671 q 487 575 504 600 q 447 535 469 550 q 399 519 424 521 l 399 504 q 447 490 424 503 q 488 448 471 476 q 517 377 506 419 q 528 275 528 335 l 528 243 q 467 51 528 117 q 267 -14 407 -14 q 72 51 129 -14 q 15 243 15 117 l 15 275 q 49 445 15 388 q 132 506 83 503 l 132 521 q 49 576 82 524 q 17 714 17 628 l 17 743 m 239 654 q 249 619 239 631 q 272 608 258 608 q 294 619 285 608 q 304 654 304 631 l 304 747 q 294 783 304 774 q 272 793 285 793 q 249 783 258 793 q 239 747 239 774 l 239 654 m 238 225 q 248 190 238 200 q 272 179 258 179 q 295 190 285 179 q 306 225 306 200 l 306 369 q 272 417 306 417 q 238 369 238 417 l 238 225 z "},"9":{"ha":540,"x_min":15,"x_max":524,"o":"m 239 351 l 239 225 q 249 189 239 199 q 271 179 258 179 q 292 189 283 179 q 301 226 301 199 l 301 418 l 286 418 q 239 384 268 394 q 181 374 210 374 q 117 385 147 374 q 65 421 88 397 q 28 481 42 444 q 15 567 15 517 l 15 729 q 84 921 15 856 q 274 986 153 986 q 458 922 392 986 q 524 729 524 858 l 524 242 q 458 50 524 114 q 274 -14 392 -14 q 85 51 154 -14 q 17 242 17 115 l 17 351 l 239 351 m 303 747 q 293 783 303 772 q 269 793 283 793 q 247 783 257 793 q 238 747 238 772 l 238 626 q 247 590 238 600 q 269 581 256 581 q 293 590 283 581 q 303 626 303 600 l 303 747 z "},"\u0000":{"ha":0,"x_min":0,"x_max":0,"o":""},"\r":{"ha":347,"x_min":0,"x_max":0,"o":""}," ":{"ha":229,"x_min":0,"x_max":0,"o":""},"F":{"ha":381,"x_min":17,"x_max":375,"o":"m 239 779 l 239 582 l 367 582 l 367 389 l 239 389 l 239 0 l 17 0 l 17 972 l 375 972 l 375 779 l 239 779 z "},"G":{"ha":540,"x_min":15,"x_max":525,"o":"m 238 226 q 247 191 238 203 q 268 179 256 179 q 292 193 282 179 q 303 236 303 207 l 303 393 l 263 393 l 263 538 l 525 538 l 525 0 l 374 0 l 374 88 l 358 88 q 302 13 344 39 q 211 -14 260 -14 q 142 1 176 -14 q 78 47 107 15 q 33 126 50 78 q 15 243 15 175 l 15 732 q 81 923 15 860 q 267 986 147 986 q 456 922 388 986 q 525 732 525 857 l 525 575 l 303 575 l 303 747 q 293 784 303 774 q 271 794 283 794 q 247 784 257 794 q 238 747 238 774 l 238 226 z "},"H":{"ha":535,"x_min":17,"x_max":519,"o":"m 519 974 l 519 0 l 299 0 l 299 403 l 239 403 l 239 0 l 17 0 l 17 974 l 239 974 l 239 596 l 299 596 l 299 974 l 519 974 z "},"I":{"ha":254,"x_min":17,"x_max":239,"o":"m 239 972 l 239 0 l 17 0 l 17 972 l 239 972 z "},"J":{"ha":529,"x_min":10,"x_max":514,"o":"m 514 972 l 514 243 q 447 51 514 117 q 257 -14 379 -14 q 74 50 138 -14 q 10 243 10 114 l 10 453 l 232 453 l 232 225 q 241 190 232 200 q 263 179 250 179 q 283 190 275 179 q 292 225 292 200 l 292 972 l 514 972 z "},"K":{"ha":540,"x_min":18,"x_max":538,"o":"m 240 582 l 258 582 l 296 972 l 531 972 l 440 486 l 538 1 l 301 1 l 258 390 l 240 390 l 240 1 l 18 1 l 18 972 l 240 972 l 240 582 z "},"L":{"ha":379,"x_min":17,"x_max":375,"o":"m 239 972 l 239 193 l 375 193 l 375 0 l 17 0 l 17 972 l 239 972 z "},"M":{"ha":674,"x_min":17,"x_max":658,"o":"m 303 972 l 331 386 l 346 386 l 374 972 l 658 972 l 658 0 l 454 0 l 479 582 l 464 582 l 407 0 l 268 0 l 210 582 l 194 582 l 221 0 l 17 0 l 17 972 l 303 972 z "},"N":{"ha":557,"x_min":15,"x_max":542,"o":"m 542 972 l 542 0 l 300 0 l 201 582 l 189 582 l 238 0 l 15 0 l 15 972 l 257 972 l 361 386 l 374 386 l 319 972 l 542 972 z "},"O":{"ha":540,"x_min":15,"x_max":525,"o":"m 15 731 q 81 922 15 858 q 267 986 147 986 q 456 922 388 986 q 525 731 525 857 l 525 243 q 456 51 525 117 q 267 -14 388 -14 q 81 51 147 -14 q 15 243 15 115 l 15 731 m 238 225 q 247 190 238 200 q 269 179 257 179 q 293 190 283 179 q 303 225 303 200 l 303 747 q 293 783 303 774 q 269 793 283 793 q 247 783 257 793 q 238 747 238 774 l 238 225 z "},"P":{"ha":536,"x_min":17,"x_max":521,"o":"m 265 972 q 454 890 388 972 q 521 628 521 807 l 521 625 q 505 471 521 533 q 457 370 489 408 q 376 315 425 332 q 263 299 328 299 l 239 299 l 239 0 l 17 0 l 17 972 l 265 972 m 239 492 l 263 492 q 292 503 285 492 q 300 543 300 515 l 300 725 q 292 767 300 756 q 263 779 285 779 l 239 779 l 239 492 z "},"Q":{"ha":540,"x_min":15,"x_max":525,"o":"m 15 732 q 81 923 15 860 q 267 986 147 986 q 456 922 388 986 q 525 732 525 857 l 525 243 q 477 76 525 139 q 343 -6 429 14 l 343 -24 q 347 -40 343 -35 q 363 -44 350 -44 l 472 -44 l 472 -206 l 379 -206 q 297 -199 332 -206 q 239 -174 261 -192 q 206 -124 217 -156 q 194 -46 194 -93 l 194 -7 q 62 73 108 11 q 15 243 15 135 l 15 732 m 238 226 q 247 190 238 200 q 271 179 257 179 q 293 190 283 179 q 303 226 303 200 l 303 747 q 293 784 303 774 q 271 794 283 794 q 247 784 257 794 q 238 747 238 774 l 238 226 z "},"R":{"ha":539,"x_min":17,"x_max":535,"o":"m 265 974 q 454 909 388 974 q 521 713 521 844 l 521 707 q 508 602 521 647 q 474 527 494 557 q 428 481 453 497 q 379 464 403 465 l 379 449 q 428 430 403 447 q 474 382 453 413 q 508 308 494 351 q 521 210 521 264 l 521 199 q 523 92 521 139 q 535 0 525 44 l 314 0 q 302 94 304 44 q 300 200 300 143 l 300 313 q 292 349 300 339 q 263 360 283 360 l 239 360 l 239 0 l 17 0 l 17 974 l 265 974 m 239 553 l 263 553 q 292 564 283 553 q 300 601 300 575 l 300 733 q 292 769 300 758 q 263 781 283 781 l 239 781 l 239 553 z "},"S":{"ha":540,"x_min":15,"x_max":525,"o":"m 301 633 l 301 747 q 271 793 301 793 q 239 747 239 793 l 239 675 q 242 644 239 657 q 256 618 244 631 q 291 591 268 606 q 354 556 314 576 l 396 536 q 458 494 433 517 q 498 440 483 471 q 519 365 513 408 q 525 263 525 322 l 525 243 q 458 53 525 119 q 267 -14 390 -14 q 80 51 144 -14 q 15 243 15 117 l 15 339 l 238 339 l 238 226 q 271 179 238 179 q 303 225 303 179 l 303 300 q 300 332 303 319 q 286 356 297 344 q 254 381 275 368 q 196 414 233 394 l 147 438 q 85 481 110 457 q 44 538 60 504 q 23 615 29 571 q 17 717 17 658 l 17 731 q 81 922 17 857 q 267 986 144 986 q 456 919 389 986 q 524 731 524 853 l 524 633 l 301 633 z "},"T":{"ha":503,"x_min":7,"x_max":497,"o":"m 497 779 l 364 779 l 364 0 l 142 0 l 142 779 l 7 779 l 7 972 l 497 972 l 497 779 z "},"U":{"ha":536,"x_min":15,"x_max":521,"o":"m 238 972 l 238 225 q 247 190 238 200 q 268 179 256 179 q 290 190 281 179 q 299 225 299 200 l 299 972 l 521 972 l 521 243 q 453 51 521 117 q 264 -14 385 -14 q 80 51 144 -14 q 15 243 15 115 l 15 972 l 238 972 z "},"V":{"ha":528,"x_min":6,"x_max":522,"o":"m 228 972 l 256 246 l 271 246 l 300 972 l 522 972 l 435 0 l 89 0 l 6 972 l 228 972 z "},"W":{"ha":710,"x_min":6,"x_max":704,"o":"m 228 972 l 236 385 l 251 385 l 282 972 l 426 972 l 458 385 l 474 385 l 482 972 l 704 972 l 625 0 l 378 0 l 360 410 l 344 410 l 326 0 l 81 0 l 6 972 l 228 972 z "},"X":{"ha":544,"x_min":6,"x_max":539,"o":"m 264 589 l 281 589 l 306 972 l 536 972 l 468 488 l 539 0 l 306 0 l 279 393 l 264 393 l 238 0 l 6 0 l 75 488 l 7 972 l 239 972 l 264 589 z "},"Y":{"ha":517,"x_min":6,"x_max":511,"o":"m 228 972 l 251 574 l 267 574 l 289 972 l 511 972 l 368 267 l 368 0 l 146 0 l 146 267 l 6 972 l 228 972 z "},"Z":{"ha":474,"x_min":8,"x_max":467,"o":"m 451 972 l 451 778 l 236 204 l 244 193 l 467 193 l 467 0 l 8 0 l 8 193 l 224 768 l 214 779 l 22 779 l 22 972 l 451 972 z "},"a":{"ha":506,"x_min":14,"x_max":490,"o":"m 281 497 q 253 542 281 542 q 225 497 225 542 l 225 408 l 15 408 l 15 485 q 78 659 15 596 q 250 722 140 722 q 426 658 361 722 q 490 485 490 594 l 490 0 l 281 0 l 281 60 l 275 60 q 146 -14 222 -14 q 51 26 88 -14 q 14 132 14 67 l 14 235 q 58 341 14 300 q 172 382 103 382 l 281 382 l 281 497 m 281 279 l 260 279 q 224 249 224 279 l 224 181 q 249 149 224 149 q 281 174 269 149 l 281 279 z "},"b":{"ha":506,"x_min":15,"x_max":492,"o":"m 15 1000 l 225 1000 l 225 640 l 240 639 q 363 722 281 722 q 456 678 421 722 q 492 547 492 635 l 492 182 q 456 39 492 92 q 357 -14 419 -14 q 290 7 321 -14 q 240 69 258 28 l 225 69 l 225 0 l 15 0 l 15 1000 m 225 196 q 256 171 235 171 q 274 181 267 171 q 282 207 282 192 l 282 504 q 275 528 282 519 q 257 538 268 538 q 225 513 235 538 l 225 196 z "},"c":{"ha":506,"x_min":14,"x_max":490,"o":"m 224 211 q 251 167 224 167 q 281 211 281 167 l 281 332 l 490 332 l 490 222 q 426 50 490 114 q 250 -14 361 -14 q 76 49 139 -14 q 14 222 14 113 l 14 485 q 76 659 14 596 q 250 722 139 722 q 426 658 361 722 q 490 485 490 594 l 490 376 l 281 376 l 281 497 q 251 542 281 542 q 224 497 224 542 l 224 211 z "},"d":{"ha":506,"x_min":14,"x_max":490,"o":"m 281 0 l 281 69 l 265 69 q 214 8 244 29 q 151 -14 183 -14 q 100 0 125 -14 q 56 41 75 14 q 26 108 38 68 q 14 200 14 147 l 14 553 q 54 681 14 640 q 144 722 94 722 q 216 701 182 722 q 265 640 250 681 l 281 640 l 281 1000 l 490 1000 l 490 0 l 281 0 m 281 515 q 250 538 272 538 q 231 528 239 538 q 224 504 224 519 l 224 208 q 231 183 224 193 q 250 172 239 172 q 281 197 271 172 l 281 515 z "},"e":{"ha":506,"x_min":14,"x_max":490,"o":"m 224 211 q 251 167 224 167 q 281 211 281 167 l 281 269 l 490 269 l 490 224 q 425 50 490 114 q 249 -14 360 -14 q 76 49 139 -14 q 14 224 14 113 l 14 486 q 76 659 14 596 q 249 722 139 722 q 425 658 360 722 q 490 486 490 594 l 490 304 l 224 304 l 224 211 m 224 417 l 281 417 l 281 497 q 251 542 281 542 q 224 497 224 542 l 224 417 z "},"f":{"ha":374,"x_min":0,"x_max":382,"o":"m 60 760 q 74 874 60 828 q 115 947 89 919 q 180 987 142 975 q 264 999 218 999 q 321 995 292 999 q 382 986 350 992 l 381 806 q 359 810 369 808 q 338 811 349 811 q 290 797 310 811 q 269 747 269 783 l 269 708 l 381 708 l 381 528 l 269 528 l 269 0 l 60 0 l 60 528 l 0 528 l 0 708 l 60 708 l 60 760 z "},"g":{"ha":506,"x_min":14,"x_max":490,"o":"m 490 -79 q 428 -236 490 -181 q 254 -292 367 -292 q 78 -235 142 -292 q 15 -79 15 -179 l 15 -40 l 225 -40 l 225 -68 q 253 -111 225 -111 q 281 -65 281 -111 l 281 71 l 265 71 q 215 8 246 29 q 149 -14 185 -14 q 50 39 86 -14 q 14 182 14 92 l 14 535 q 49 672 14 622 q 146 722 83 722 q 215 701 183 722 q 265 638 246 681 l 281 638 l 281 708 l 490 708 l 490 -79 m 281 508 q 267 529 275 521 q 249 538 258 538 q 231 527 238 538 q 224 501 224 517 l 224 211 q 231 182 224 193 q 249 171 238 171 q 281 200 269 171 l 281 508 z "},"h":{"ha":506,"x_min":15,"x_max":492,"o":"m 15 1000 l 225 1000 l 225 638 l 240 638 q 360 722 279 722 q 453 678 414 722 q 492 535 492 633 l 492 0 l 282 0 l 282 503 q 257 538 282 538 q 225 511 239 538 l 225 0 l 15 0 l 15 1000 z "},"i":{"ha":247,"x_min":7,"x_max":239,"o":"m 7 864 q 38 942 7 917 q 121 967 68 967 q 206 942 174 967 q 239 864 239 917 q 207 786 239 811 q 122 761 175 761 q 38 786 69 761 q 7 864 7 811 m 229 708 l 229 0 l 18 0 l 18 708 l 229 708 z "},"j":{"ha":246,"x_min":-60,"x_max":238,"o":"m 6 865 q 36 943 6 918 q 119 968 67 968 q 205 943 172 968 q 238 865 238 918 q 206 788 238 813 q 121 763 174 763 q 37 788 68 763 q 6 865 6 813 m 226 -51 q 174 -233 226 -174 q 31 -292 121 -292 q -60 -279 -12 -292 l -60 -99 q -47 -101 -53 -100 q -36 -101 -42 -101 q 2 -90 -12 -101 q 17 -53 17 -79 l 17 710 l 226 710 l 226 -51 z "},"k":{"ha":488,"x_min":15,"x_max":497,"o":"m 225 472 l 240 472 l 283 708 l 489 708 l 404 372 l 497 0 l 292 0 l 240 268 l 225 268 l 225 0 l 15 0 l 15 1000 l 225 1000 l 225 472 z "},"l":{"ha":242,"x_min":17,"x_max":226,"o":"m 17 1000 l 226 1000 l 226 0 l 17 0 l 17 1000 z "},"m":{"ha":767,"x_min":15,"x_max":753,"o":"m 15 708 l 225 708 l 225 638 l 239 638 q 354 722 282 722 q 422 700 393 722 q 468 638 451 678 l 482 638 q 537 701 503 679 q 608 722 571 722 q 662 710 636 722 q 708 675 688 699 q 740 616 728 651 q 753 535 753 581 l 753 0 l 543 0 l 543 504 q 537 528 543 519 q 519 538 531 538 q 489 518 506 538 l 489 0 l 279 0 l 279 504 q 273 528 279 519 q 256 538 267 538 q 225 513 239 538 l 225 0 l 15 0 l 15 708 z "},"n":{"ha":506,"x_min":15,"x_max":492,"o":"m 15 708 l 226 708 l 226 638 l 240 638 q 360 722 282 722 q 453 678 414 722 q 492 535 492 633 l 492 0 l 282 0 l 282 504 q 257 539 282 539 q 226 514 238 539 l 226 0 l 15 0 l 15 708 z "},"o":{"ha":506,"x_min":14,"x_max":490,"o":"m 14 485 q 74 656 14 589 q 250 722 133 722 q 353 704 308 722 q 428 655 399 686 q 474 580 458 624 q 490 485 490 536 l 490 222 q 474 128 490 171 q 428 53 458 85 q 353 4 399 22 q 250 -14 308 -14 q 147 3 192 -14 q 74 52 103 21 q 29 127 44 83 q 14 222 14 171 l 14 485 m 224 211 q 253 167 224 167 q 281 211 281 167 l 281 497 q 253 542 281 542 q 224 497 224 542 l 224 211 z "},"p":{"ha":506,"x_min":15,"x_max":492,"o":"m 225 708 l 225 625 l 240 625 q 302 703 274 683 q 358 722 331 722 q 456 668 421 722 q 492 524 492 614 l 492 181 q 458 39 492 92 q 367 -14 424 -14 q 298 10 332 -14 q 240 83 264 33 l 225 83 l 225 -279 l 15 -279 l 15 708 l 225 708 m 225 208 q 257 181 236 181 q 275 192 268 181 q 282 218 282 203 l 282 490 q 275 515 282 506 q 257 525 268 525 q 225 497 236 525 l 225 208 z "},"q":{"ha":506,"x_min":14,"x_max":490,"o":"m 490 -279 l 281 -279 l 281 83 l 265 83 q 208 10 242 33 q 139 -14 174 -14 q 48 39 82 -14 q 14 181 14 92 l 14 524 q 49 668 14 614 q 147 722 85 722 q 203 703 175 722 q 265 625 231 685 l 281 625 l 281 708 l 490 708 l 490 -279 m 281 497 q 249 525 269 525 q 231 515 238 525 q 224 490 224 506 l 224 218 q 231 192 224 203 q 249 181 238 181 q 281 208 269 181 l 281 497 z "},"r":{"ha":390,"x_min":15,"x_max":382,"o":"m 225 610 l 231 610 q 279 690 246 658 q 363 722 313 722 q 372 722 367 722 q 382 721 376 722 l 382 513 q 363 515 372 514 q 344 515 354 515 q 253 481 282 515 q 225 379 225 446 l 225 0 l 15 0 l 15 708 l 225 708 l 225 610 z "},"s":{"ha":506,"x_min":14,"x_max":490,"o":"m 279 463 l 279 497 q 250 540 279 540 q 224 500 224 540 l 224 499 q 233 462 224 474 q 275 439 243 450 l 369 394 q 461 327 432 367 q 490 217 490 288 l 490 196 q 474 117 490 154 q 427 50 458 79 q 351 3 396 21 q 247 -14 306 -14 q 147 3 190 -14 q 74 51 103 21 q 29 124 44 82 q 14 214 14 165 l 14 246 l 224 246 l 224 214 q 250 171 224 171 q 281 210 281 171 l 281 213 q 270 249 281 238 q 225 275 260 261 l 129 317 q 41 383 67 343 q 15 493 15 422 l 15 513 q 31 592 15 554 q 76 660 46 631 q 149 706 106 689 q 250 722 193 722 q 353 705 308 722 q 428 657 397 688 q 474 585 458 626 q 490 496 490 543 l 490 463 l 279 463 z "},"t":{"ha":386,"x_min":1,"x_max":381,"o":"m 1 708 l 61 708 l 61 861 l 271 874 l 271 708 l 379 708 l 379 528 l 271 528 l 271 236 q 291 187 271 200 q 338 174 311 174 q 379 179 361 174 l 381 -1 q 264 -14 318 -14 q 181 -2 218 -14 q 117 38 143 10 q 76 111 90 65 q 61 225 61 157 l 61 528 l 1 528 l 1 708 z "},"u":{"ha":506,"x_min":14,"x_max":490,"o":"m 490 0 l 281 0 l 281 71 l 265 71 q 146 -14 224 -14 q 53 31 92 -14 q 14 174 14 75 l 14 708 l 224 708 l 224 199 q 249 164 224 164 q 281 190 268 164 l 281 708 l 490 708 l 490 0 z "},"v":{"ha":492,"x_min":7,"x_max":485,"o":"m 217 708 l 238 247 l 253 247 l 275 708 l 485 708 l 394 0 l 97 0 l 7 708 l 217 708 z "},"w":{"ha":686,"x_min":6,"x_max":679,"o":"m 215 708 l 224 296 l 239 296 l 271 708 l 415 708 l 447 296 l 463 296 l 469 708 l 679 708 l 592 0 l 369 0 l 350 279 l 336 279 l 317 0 l 94 0 l 6 708 l 215 708 z "},"x":{"ha":500,"x_min":1,"x_max":497,"o":"m 242 431 l 257 431 l 279 708 l 496 708 l 439 354 l 497 0 l 279 0 l 256 285 l 242 285 l 218 0 l 1 0 l 60 356 l 3 708 l 219 708 l 242 431 z "},"y":{"ha":506,"x_min":15,"x_max":492,"o":"m 492 -79 q 430 -236 492 -181 q 256 -292 368 -292 q 80 -235 143 -292 q 17 -79 17 -179 l 17 -40 l 226 -40 l 226 -68 q 254 -111 226 -111 q 282 -65 282 -111 l 282 71 l 267 71 q 147 -14 225 -14 q 54 31 93 -14 q 15 174 15 75 l 15 708 l 225 708 l 225 199 q 250 164 225 164 q 282 190 269 164 l 282 708 l 492 708 l 492 -79 z "},"z":{"ha":438,"x_min":13,"x_max":425,"o":"m 13 0 l 13 179 l 183 514 l 178 528 l 21 528 l 21 708 l 414 708 l 414 529 l 243 193 l 251 181 l 425 181 l 425 0 l 13 0 z "},"$":{"ha":540,"x_min":15,"x_max":525,"o":"m 301 633 l 301 747 q 271 793 301 793 q 239 747 239 793 l 239 675 q 242 644 239 657 q 256 618 244 631 q 291 591 268 606 q 354 556 314 576 l 396 536 q 458 494 433 517 q 498 440 483 471 q 519 365 513 408 q 525 263 525 322 l 525 243 q 481 82 525 144 q 357 -3 438 19 l 369 -137 l 171 -137 l 182 -4 q 58 79 100 17 q 15 243 15 142 l 15 339 l 238 339 l 238 226 q 271 179 238 179 q 303 225 303 179 l 303 300 q 300 332 303 319 q 286 356 297 344 q 254 381 275 368 q 196 414 233 394 l 147 438 q 85 481 110 457 q 44 538 60 504 q 23 615 29 571 q 17 717 17 658 l 17 731 q 59 894 17 832 q 182 976 101 956 l 171 1110 l 369 1110 l 357 975 q 481 890 438 953 q 524 731 524 828 l 524 633 l 301 633 z "},"¢":{"ha":506,"x_min":14,"x_max":490,"o":"m 224 211 q 251 167 224 167 q 281 211 281 167 l 281 332 l 490 332 l 490 222 q 451 81 490 139 q 342 0 413 24 l 353 -139 l 154 -139 l 165 -3 q 53 77 93 19 q 14 222 14 135 l 14 485 q 53 631 14 572 q 165 711 93 689 l 154 846 l 353 846 l 342 708 q 451 627 413 685 q 490 485 490 569 l 490 376 l 281 376 l 281 497 q 251 542 281 542 q 224 497 224 542 l 224 211 z "},"¥":{"ha":517,"x_min":6,"x_max":511,"o":"m 228 972 l 251 574 l 267 574 l 289 972 l 511 972 l 411 485 l 507 485 l 507 347 l 383 347 l 379 325 l 507 325 l 507 188 l 368 188 l 368 0 l 146 0 l 144 188 l 10 188 l 10 325 l 133 325 l 129 347 l 10 347 l 10 485 l 103 485 l 6 972 l 228 972 z "},"§":{"ha":513,"x_min":15,"x_max":496,"o":"m 286 700 l 286 758 q 256 804 286 804 q 226 761 226 804 l 226 686 q 236 644 226 657 q 278 621 246 632 l 372 576 q 465 508 435 549 q 496 394 496 467 l 496 299 q 482 222 496 257 q 438 158 468 186 q 481 101 467 135 q 496 14 496 67 l 496 -81 q 480 -161 496 -122 q 433 -229 464 -200 q 356 -276 401 -258 q 253 -293 311 -293 q 150 -276 194 -293 q 76 -227 106 -258 q 31 -154 46 -196 q 15 -62 15 -112 l 15 -7 l 225 -7 l 225 -62 q 256 -108 225 -108 q 288 -65 288 -108 l 288 10 q 276 52 288 40 q 229 78 265 64 l 133 119 q 44 187 71 146 q 18 300 18 228 l 18 393 q 75 531 18 475 q 31 591 44 556 q 18 681 18 626 l 18 772 q 33 856 18 817 q 78 924 49 894 q 153 969 108 953 q 254 986 197 986 q 358 969 313 986 q 433 920 403 951 q 480 847 464 889 q 496 757 496 806 l 496 700 l 286 700 m 242 260 q 279 285 271 271 q 288 314 288 300 l 288 390 q 272 433 288 419 q 234 413 242 426 q 226 382 226 400 l 226 306 q 229 279 226 290 q 242 260 232 268 z "},"D":{"ha":539,"x_min":17,"x_max":524,"o":"m 267 972 q 455 913 386 972 q 524 729 524 854 l 524 243 q 455 59 524 118 q 267 0 386 0 l 17 0 l 17 972 l 267 972 m 240 193 l 265 193 q 292 202 283 193 q 301 239 301 211 l 301 733 q 292 770 301 761 q 265 779 283 779 l 240 779 l 240 193 z "},"…":{"ha":725,"x_min":17,"x_max":708,"o":"m 17 108 q 126 222 17 222 q 207 192 179 222 q 235 107 235 163 q 126 -7 235 -7 q 17 108 17 -7 m 253 108 q 363 222 253 222 q 443 192 415 222 q 471 107 471 163 q 363 -7 471 -7 q 253 108 253 -7 m 490 108 q 600 222 490 222 q 681 192 653 222 q 708 107 708 163 q 600 -7 708 -7 q 490 108 490 -7 z "},"÷":{"ha":535,"x_min":17,"x_max":518,"o":"m 518 396 l 17 396 l 17 557 l 518 557 l 518 396 m 169 685 q 268 788 169 788 q 340 761 315 788 q 365 684 365 734 q 268 581 365 581 q 169 685 169 581 m 169 271 q 268 374 169 374 q 340 347 315 374 q 365 270 365 320 q 268 167 365 167 q 169 271 169 167 z "},"!":{"ha":268,"x_min":24,"x_max":246,"o":"m 246 972 l 246 833 l 221 235 l 47 235 l 24 833 l 24 972 l 246 972 m 25 108 q 135 222 25 222 q 216 192 188 222 q 244 107 244 163 q 135 -7 244 -7 q 25 108 25 -7 z "},".":{"ha":251,"x_min":17,"x_max":235,"o":"m 17 108 q 126 222 17 222 q 207 192 179 222 q 235 107 235 163 q 126 -7 235 -7 q 17 108 17 -7 z "},",":{"ha":251,"x_min":-8,"x_max":235,"o":"m 40 218 l 235 218 l 124 -137 l -8 -137 l 40 218 z "},":":{"ha":251,"x_min":17,"x_max":235,"o":"m 17 108 q 126 222 17 222 q 207 192 179 222 q 235 107 235 163 q 126 -7 235 -7 q 17 108 17 -7 m 17 603 q 126 717 17 717 q 207 687 179 717 q 235 601 235 657 q 126 488 235 488 q 17 603 17 488 z "},"”":{"ha":474,"x_min":17,"x_max":457,"o":"m 258 1000 l 457 1000 l 389 571 l 240 571 l 258 1000 m 35 1000 l 233 1000 l 165 571 l 17 571 l 35 1000 z "},"“":{"ha":474,"x_min":17,"x_max":457,"o":"m 215 571 l 17 571 l 85 1000 l 233 1000 l 215 571 m 439 571 l 240 571 l 308 1000 l 457 1000 l 439 571 z "},"’":{"ha":250,"x_min":17,"x_max":233,"o":"m 35 1000 l 233 1000 l 165 571 l 17 571 l 35 1000 z "},"‘":{"ha":250,"x_min":17,"x_max":233,"o":"m 215 571 l 17 571 l 85 1000 l 233 1000 l 215 571 z "},"?":{"ha":543,"x_min":18,"x_max":526,"o":"m 18 731 q 85 919 18 853 q 276 986 153 986 q 462 922 397 986 q 526 731 526 857 l 526 717 q 517 620 526 661 q 494 549 508 579 q 463 495 481 518 q 429 451 446 472 l 428 450 q 402 419 414 435 q 381 386 390 404 q 365 347 371 368 q 360 297 360 325 l 360 239 l 150 239 l 150 285 q 158 374 150 338 q 179 438 167 411 q 208 485 192 465 q 239 521 224 504 l 240 522 q 265 549 253 536 q 285 580 276 563 q 299 620 294 597 q 304 675 304 643 l 304 747 q 272 793 304 793 q 240 747 240 793 l 240 592 l 18 592 l 18 731 m 146 108 q 254 222 146 222 q 335 192 307 222 q 363 107 363 163 q 254 -7 363 -7 q 146 108 146 -7 z "},"|":{"ha":256,"x_min":17,"x_max":239,"o":"m 17 -215 l 17 1000 l 239 1000 l 239 -215 l 17 -215 z "},"/":{"ha":350,"x_min":13,"x_max":338,"o":"m 13 -111 l 140 1014 l 338 1014 l 211 -111 l 13 -111 z "},"\\":{"ha":354,"x_min":17,"x_max":342,"o":"m 17 1014 l 214 1014 l 342 -111 l 143 -111 l 17 1014 z "},"⁄":{"ha":308,"x_min":18,"x_max":292,"o":"m 140 0 l 18 0 l 171 1000 l 292 1000 l 140 0 z "},"<":{"ha":432,"x_min":17,"x_max":414,"o":"m 414 143 l 17 292 l 17 442 l 414 593 l 414 394 l 146 376 l 146 361 l 414 342 l 414 143 z "},">":{"ha":432,"x_min":17,"x_max":414,"o":"m 17 593 l 414 444 l 414 294 l 17 143 l 17 342 l 285 360 l 285 375 l 17 394 l 17 593 z "},"%":{"ha":946,"x_min":14,"x_max":931,"o":"m 14 750 q 24 845 14 801 q 58 920 35 889 q 119 969 81 951 q 211 986 157 986 q 303 968 265 986 q 366 919 342 950 q 401 844 390 888 q 413 750 413 801 l 413 654 q 401 559 413 603 q 366 484 390 515 q 303 435 342 453 q 211 417 265 417 q 119 434 157 417 q 58 483 81 451 q 24 559 35 515 q 14 654 14 603 l 14 750 m 618 972 l 743 972 l 326 0 l 201 0 l 618 972 m 188 606 q 214 561 188 561 q 239 606 239 561 l 239 799 q 214 842 239 842 q 188 799 188 842 l 188 606 m 532 319 q 542 415 532 371 q 576 490 553 458 q 637 538 599 521 q 729 556 675 556 q 822 538 783 556 q 884 488 860 519 q 919 414 908 457 q 931 319 931 371 l 931 224 q 919 128 931 172 q 884 53 908 85 q 822 4 860 22 q 729 -14 783 -14 q 637 3 675 -14 q 576 53 599 21 q 542 128 553 85 q 532 224 532 172 l 532 319 m 706 175 q 732 131 706 131 q 757 175 757 131 l 757 368 q 732 413 757 413 q 706 368 706 413 l 706 175 z "},"‰":{"ha":1368,"x_min":14,"x_max":1353,"o":"m 14 750 q 24 845 14 801 q 58 920 35 889 q 119 969 81 951 q 211 986 157 986 q 303 968 265 986 q 366 919 342 950 q 401 844 390 888 q 413 750 413 801 l 413 654 q 401 559 413 603 q 366 484 390 515 q 303 435 342 453 q 211 417 265 417 q 119 434 157 417 q 58 483 81 451 q 24 559 35 515 q 14 654 14 603 l 14 750 m 618 972 l 743 972 l 326 0 l 201 0 l 618 972 m 188 606 q 214 561 188 561 q 239 606 239 561 l 239 799 q 214 842 239 842 q 188 799 188 842 l 188 606 m 532 319 q 542 415 532 371 q 576 490 553 458 q 637 538 599 521 q 729 556 675 556 q 822 538 783 556 q 884 488 860 519 q 919 414 908 457 q 931 319 931 371 l 931 224 q 919 128 931 172 q 884 53 908 85 q 822 4 860 22 q 729 -14 783 -14 q 637 3 675 -14 q 576 53 599 21 q 542 128 553 85 q 532 224 532 172 l 532 319 m 954 319 q 965 415 954 371 q 998 490 975 458 q 1059 538 1021 521 q 1151 556 1097 556 q 1244 538 1206 556 q 1306 488 1282 519 q 1342 414 1331 457 q 1353 319 1353 371 l 1353 224 q 1342 128 1353 172 q 1306 53 1331 85 q 1244 4 1282 22 q 1151 -14 1206 -14 q 1059 3 1097 -14 q 998 53 1021 21 q 965 128 975 85 q 954 224 954 172 l 954 319 m 706 175 q 732 131 706 131 q 757 175 757 131 l 757 368 q 732 413 757 413 q 706 368 706 413 l 706 175 m 1128 175 q 1154 131 1128 131 q 1179 175 1179 131 l 1179 368 q 1154 413 1179 413 q 1128 368 1128 413 l 1128 175 z "},"«":{"ha":835,"x_min":17,"x_max":818,"o":"m 415 108 l 17 292 l 17 442 l 415 626 l 417 442 l 815 626 l 818 429 l 653 369 l 653 367 l 817 307 l 815 108 l 417 292 l 415 108 m 253 367 l 417 307 l 417 429 l 253 369 l 253 367 z "},"»":{"ha":835,"x_min":15,"x_max":817,"o":"m 418 628 l 817 444 l 817 294 l 418 110 l 417 294 l 18 110 l 15 307 l 181 367 l 181 369 l 17 429 l 18 628 l 417 444 l 418 628 m 581 369 l 417 429 l 417 307 l 581 367 l 581 369 z "},"^":{"ha":399,"x_min":18,"x_max":382,"o":"m 221 653 l 207 908 l 192 908 l 179 653 l 18 653 l 104 972 l 296 972 l 382 653 l 221 653 z "},"*":{"ha":547,"x_min":18,"x_max":529,"o":"m 182 749 l 18 776 l 68 931 l 218 856 l 193 1021 l 356 1021 l 331 856 l 479 931 l 529 776 l 365 749 l 482 631 l 350 535 l 274 682 l 197 535 l 65 631 l 182 749 z "},"#":{"ha":632,"x_min":18,"x_max":615,"o":"m 133 307 l 18 307 l 18 443 l 140 443 l 146 528 l 18 528 l 18 664 l 153 664 l 171 972 l 319 972 l 303 664 l 350 664 l 368 972 l 517 972 l 500 664 l 615 664 l 615 528 l 492 528 l 488 443 l 615 443 l 615 307 l 479 307 l 461 0 l 313 0 l 331 307 l 282 307 l 264 0 l 115 0 l 133 307 m 338 443 l 343 528 l 294 528 l 290 443 l 338 443 z "},"[":{"ha":346,"x_min":17,"x_max":329,"o":"m 17 -215 l 17 1000 l 329 1000 l 329 807 l 239 807 l 239 -22 l 329 -22 l 329 -215 l 17 -215 z "},"]":{"ha":346,"x_min":17,"x_max":329,"o":"m 329 1000 l 329 -215 l 17 -215 l 17 -22 l 107 -22 l 107 807 l 17 807 l 17 1000 l 329 1000 z "},"(":{"ha":317,"x_min":18,"x_max":300,"o":"m 114 -240 q 42 94 65 -60 q 18 393 18 247 q 42 691 18 538 q 114 1025 65 844 l 300 1000 q 274 827 285 908 q 255 672 263 746 q 244 529 247 599 q 240 393 240 460 q 244 256 240 325 q 255 113 247 188 q 274 -42 263 39 q 300 -215 285 -124 l 114 -240 z "},")":{"ha":317,"x_min":17,"x_max":299,"o":"m 203 1025 q 275 691 251 844 q 299 392 299 538 q 275 94 299 247 q 203 -240 251 -60 l 17 -215 q 43 -42 32 -124 q 62 113 54 39 q 73 256 69 186 q 76 392 76 325 q 73 528 76 460 q 62 672 69 597 q 43 827 54 746 q 17 1000 32 908 l 203 1025 z "},"{":{"ha":475,"x_min":17,"x_max":456,"o":"m 336 569 q 331 501 336 532 q 311 447 325 469 q 273 413 297 425 q 213 400 249 400 l 213 385 q 273 372 249 385 q 311 338 297 360 q 331 285 325 317 q 336 217 336 254 l 336 75 q 340 13 336 38 q 353 -24 343 -11 q 382 -42 364 -37 q 428 -47 400 -47 l 456 -47 l 456 -240 l 351 -240 q 174 -178 235 -240 q 114 7 114 -117 l 114 215 q 110 256 114 239 q 97 283 107 272 q 67 300 86 294 q 17 306 49 306 l 17 479 q 67 485 49 479 q 97 502 86 490 q 110 531 107 514 q 114 571 114 549 l 114 779 q 174 965 114 903 q 351 1026 235 1026 l 456 1026 l 456 833 l 428 833 q 382 828 400 833 q 353 810 364 824 q 340 773 343 797 q 336 710 336 749 l 336 569 z "},"}":{"ha":475,"x_min":18,"x_max":457,"o":"m 138 215 q 143 284 138 253 q 163 338 149 315 q 201 372 176 360 q 261 385 225 385 l 261 400 q 201 413 225 400 q 163 447 176 425 q 143 499 149 468 q 138 568 138 531 l 138 710 q 134 772 138 747 q 120 809 131 796 q 92 827 110 822 q 46 832 74 832 l 18 832 l 18 1025 l 122 1025 q 299 963 239 1025 q 360 778 360 901 l 360 569 q 363 529 360 546 q 377 501 367 513 q 406 485 388 490 q 457 479 425 479 l 457 306 q 406 300 425 306 q 377 283 388 294 q 363 254 367 271 q 360 214 360 236 l 360 6 q 299 -180 360 -118 q 122 -242 239 -242 l 18 -242 l 18 -49 l 46 -49 q 92 -44 74 -49 q 120 -26 110 -39 q 134 12 131 -12 q 138 75 138 36 l 138 215 z "},"@":{"ha":913,"x_min":15,"x_max":897,"o":"m 657 142 q 665 120 657 128 q 685 113 674 113 q 704 120 696 113 q 713 142 713 128 l 713 568 q 649 698 713 658 q 456 738 586 738 q 263 698 325 738 q 200 568 200 658 l 200 186 q 214 60 200 110 q 261 -19 228 10 q 350 -58 294 -47 q 489 -69 406 -69 l 489 -243 q 129 -143 243 -243 q 15 179 15 -43 l 15 600 q 49 726 15 669 q 141 824 82 783 q 281 888 200 865 q 457 911 361 911 q 632 888 551 911 q 772 824 713 865 q 864 726 831 783 q 897 600 897 669 l 897 175 q 839 38 897 90 q 686 -14 781 -14 q 611 -3 646 -14 q 551 25 576 7 q 510 68 525 43 q 496 122 496 93 l 496 131 l 482 131 q 441 24 471 63 q 367 -14 411 -14 q 283 43 313 -14 q 254 206 254 100 l 254 529 q 287 639 254 596 q 369 682 319 682 q 440 651 410 682 q 482 569 469 621 l 496 569 l 496 674 l 657 674 l 657 142 m 496 492 q 467 515 485 515 q 440 481 440 515 l 440 222 q 448 195 440 206 q 467 185 456 185 q 496 210 485 185 l 496 492 z "},"&":{"ha":585,"x_min":15,"x_max":571,"o":"m 238 601 q 245 572 238 583 q 271 561 253 561 l 303 561 l 303 646 l 525 646 l 525 561 l 571 561 l 571 413 l 525 413 l 525 0 l 372 0 l 372 88 l 357 88 q 306 13 344 39 q 211 -14 267 -14 q 136 1 172 -14 q 74 48 100 17 q 31 128 47 79 q 15 243 15 176 l 15 269 q 21 350 15 313 q 42 416 26 388 q 87 461 58 444 q 161 479 115 478 l 161 494 q 87 513 115 496 q 42 558 58 529 q 21 624 26 586 q 15 704 15 661 l 15 732 q 80 921 15 856 q 267 986 144 986 q 458 920 390 986 q 525 732 525 854 l 525 682 l 303 682 l 303 747 q 271 793 303 793 q 238 747 238 793 l 238 601 m 271 413 q 245 401 253 413 q 238 372 238 390 l 238 226 q 268 179 238 179 q 293 194 283 179 q 303 236 303 210 l 303 413 l 271 413 z "},"˜":{"ha":304,"x_min":18,"x_max":286,"o":"m 286 957 q 269 824 286 865 q 217 782 251 782 q 181 791 199 782 q 146 814 163 800 l 140 818 q 115 835 126 829 q 93 842 103 842 q 69 797 69 842 l 69 788 l 18 788 l 18 799 q 36 927 18 882 q 90 972 54 972 q 123 964 106 972 q 157 943 140 956 l 163 939 q 190 922 178 928 q 213 915 201 915 q 238 957 238 915 l 238 968 l 286 968 l 286 957 z "},"+":{"ha":601,"x_min":18,"x_max":585,"o":"m 585 390 l 389 390 l 389 188 l 215 188 l 215 390 l 18 390 l 18 551 l 215 551 l 215 754 l 389 754 l 389 551 l 585 551 l 585 390 z "},"-":{"ha":367,"x_min":17,"x_max":350,"o":"m 350 375 l 17 375 l 17 568 l 350 568 l 350 375 z "},"–":{"ha":701,"x_min":18,"x_max":721,"o":"m 721 375 l 18 375 l 18 568 l 721 568 l 721 375 z "},"—":{"ha":1033,"x_min":18,"x_max":1164,"o":"m 1164 375 l 18 375 l 18 568 l 1164 568 l 1164 375 z "},"_":{"ha":436,"x_min":17,"x_max":419,"o":"m 419 -169 l 17 -169 l 17 0 l 419 0 l 419 -169 z "},"−":{"ha":535,"x_min":17,"x_max":518,"o":"m 518 390 l 17 390 l 17 551 l 518 551 l 518 390 z "},"=":{"ha":565,"x_min":17,"x_max":547,"o":"m 547 539 l 17 539 l 17 700 l 547 700 l 547 539 m 547 240 l 17 240 l 17 401 l 547 401 l 547 240 z "},"•":{"ha":351,"x_min":18,"x_max":335,"o":"m 18 510 q 60 626 18 585 q 176 668 101 668 q 294 626 253 668 q 335 510 335 585 q 294 393 335 435 q 176 351 253 351 q 60 393 101 351 q 18 510 18 435 z "},"¿":{"ha":543,"x_min":17,"x_max":525,"o":"m 172 615 q 281 729 172 729 q 361 699 333 729 q 389 613 389 669 q 361 529 389 558 q 281 500 333 500 q 172 615 172 500 m 525 -36 q 458 -225 525 -158 q 267 -292 390 -292 q 81 -227 146 -292 q 17 -36 17 -162 l 17 -22 q 26 75 17 35 q 49 146 35 115 q 80 199 63 176 q 114 243 97 222 l 115 244 q 141 276 129 261 q 162 310 153 292 q 176 349 171 328 q 182 397 182 369 l 182 469 l 392 469 l 392 411 q 384 321 392 358 q 364 256 376 283 q 335 210 351 229 q 304 175 319 192 l 303 174 q 278 147 290 160 q 258 115 267 133 q 244 74 250 97 q 239 19 239 51 l 239 -53 q 271 -99 239 -99 q 303 -53 303 -99 l 303 103 l 525 103 l 525 -36 z "},"¡":{"ha":269,"x_min":24,"x_max":246,"o":"m 26 615 q 135 729 26 729 q 215 699 188 729 q 243 614 243 669 q 135 500 243 500 q 26 615 26 500 m 24 -139 l 49 472 l 221 472 l 246 -139 l 246 -278 l 24 -278 l 24 -139 z "},"¶":{"ha":771,"x_min":17,"x_max":754,"o":"m 532 -215 l 532 1000 l 754 1000 l 754 -215 l 532 -215 m 267 -215 l 267 261 q 154 272 201 261 q 76 319 107 282 q 31 431 46 357 q 17 631 17 504 q 31 831 17 757 q 76 942 46 904 q 154 990 107 979 q 267 1000 201 1000 l 489 1000 l 489 -215 l 267 -215 z "},"©":{"ha":881,"x_min":18,"x_max":864,"o":"m 18 549 q 117 879 18 772 q 432 986 215 986 q 761 874 658 986 q 864 549 864 761 l 864 425 q 840 236 864 318 q 764 99 815 154 q 631 15 713 43 q 435 -14 550 -14 q 242 14 321 -14 q 113 98 163 42 q 40 238 63 154 q 18 433 18 321 l 18 549 m 174 410 q 238 184 174 251 q 440 117 301 117 q 644 184 581 117 q 708 410 708 251 l 708 564 q 644 788 708 721 q 442 854 581 854 q 238 788 303 854 q 174 564 174 721 l 174 410 m 413 379 q 442 336 413 336 q 469 379 469 336 l 469 465 l 668 465 l 668 392 q 657 293 668 338 q 619 217 646 249 q 549 169 593 186 q 440 153 506 153 q 333 169 376 153 q 263 217 289 186 q 225 292 236 249 q 214 392 214 336 l 214 579 q 224 678 214 635 q 258 753 233 722 q 328 801 283 785 q 442 818 372 818 q 556 801 511 818 q 625 753 600 785 q 659 678 650 722 q 668 579 668 633 l 668 508 l 469 508 l 469 590 q 442 635 469 635 q 413 590 413 635 l 413 379 z "},"¬":{"ha":692,"x_min":17,"x_max":675,"o":"m 17 972 l 675 972 l 675 0 l 17 0 l 17 972 m 346 543 l 564 903 l 128 903 l 346 543 m 86 115 l 311 486 l 86 857 l 86 115 m 606 115 l 606 857 l 381 486 l 606 115 m 128 69 l 564 69 l 346 429 l 128 69 z "},"®":{"ha":881,"x_min":18,"x_max":864,"o":"m 18 549 q 117 879 18 772 q 432 986 215 986 q 761 874 658 986 q 864 549 864 761 l 864 426 q 840 237 864 319 q 763 99 815 154 q 630 15 711 43 q 433 -14 549 -14 q 242 14 321 -14 q 113 98 163 42 q 40 238 63 154 q 18 433 18 321 l 18 549 m 174 410 q 237 184 174 251 q 440 117 300 117 q 644 184 581 117 q 708 410 708 251 l 708 565 q 692 698 708 643 q 644 788 676 753 q 560 838 611 822 q 440 854 510 854 q 238 788 301 854 q 174 565 174 722 l 174 410 m 443 775 q 557 737 517 775 q 597 619 597 699 l 597 615 q 590 553 597 579 q 569 509 582 526 q 542 483 557 492 q 513 472 526 474 l 513 458 q 569 419 542 456 q 597 318 597 383 l 597 310 q 599 246 597 274 q 606 192 600 218 l 474 192 q 467 249 468 219 q 465 311 465 278 l 465 379 q 442 407 465 407 l 424 407 l 424 192 l 293 192 l 293 775 l 443 775 m 424 524 l 442 524 q 465 551 465 524 l 465 631 q 442 658 465 658 l 424 658 l 424 524 z "},"™":{"ha":524,"x_min":17,"x_max":507,"o":"m 193 893 l 151 893 l 151 583 l 60 583 l 60 893 l 17 893 l 17 972 l 193 972 l 193 893 m 343 972 l 351 738 l 367 738 l 376 972 l 507 972 l 507 583 l 424 583 l 431 815 l 417 815 l 396 583 l 322 583 l 299 815 l 283 815 l 293 583 l 210 583 l 210 972 l 343 972 z "},"×":{"ha":564,"x_min":18,"x_max":546,"o":"m 546 613 l 404 471 l 546 329 l 424 207 l 282 349 l 140 207 l 18 329 l 160 471 l 18 613 l 140 735 l 282 593 l 424 735 l 546 613 z "},"¦":{"ha":256,"x_min":17,"x_max":239,"o":"m 17 432 l 17 1000 l 239 1000 l 239 432 l 17 432 m 17 -215 l 17 349 l 239 349 l 239 -215 l 17 -215 z "},"†":{"ha":560,"x_min":17,"x_max":542,"o":"m 390 972 l 390 708 l 542 708 l 542 515 l 390 515 l 390 0 l 168 0 l 168 515 l 17 515 l 17 708 l 168 708 l 168 972 l 390 972 z "},"‡":{"ha":560,"x_min":17,"x_max":542,"o":"m 390 974 l 390 746 l 542 746 l 542 553 l 390 553 l 390 421 l 542 421 l 542 228 l 390 228 l 390 0 l 168 0 l 168 228 l 17 228 l 17 421 l 168 421 l 168 553 l 17 553 l 17 746 l 168 746 l 168 974 l 390 974 z "},"›":{"ha":435,"x_min":17,"x_max":418,"o":"m 19 628 l 418 444 l 418 294 l 19 108 l 17 307 l 182 367 l 182 369 l 17 429 l 19 628 z "},"‹":{"ha":435,"x_min":17,"x_max":418,"o":"m 415 108 l 17 292 l 17 442 l 415 628 l 418 429 l 253 369 l 253 367 l 418 307 l 415 108 z "},"€":{"ha":654,"x_min":15,"x_max":639,"o":"m 293 651 l 376 651 l 376 503 l 293 503 l 293 469 l 376 469 l 376 308 l 293 308 l 293 274 q 299 224 293 243 q 315 196 306 206 q 336 183 325 186 q 356 179 347 179 q 374 183 364 179 q 394 196 385 186 q 410 224 404 206 q 417 274 417 243 l 417 460 l 639 460 l 639 243 q 563 51 639 117 q 351 -14 486 -14 q 144 51 218 -14 q 71 243 71 115 l 71 308 l 15 308 l 15 469 l 71 469 l 71 503 l 15 503 l 15 651 l 71 651 l 71 731 q 144 922 71 858 q 351 986 218 986 q 563 922 486 986 q 639 731 639 857 l 639 513 l 417 513 l 417 699 q 410 749 417 731 q 394 777 404 767 q 374 790 385 788 q 356 793 364 793 q 336 790 347 793 q 315 777 325 788 q 299 749 306 767 q 293 699 293 731 l 293 651 z "},"ˆ":{"ha":306,"x_min":17,"x_max":288,"o":"m 17 782 l 76 972 l 228 972 l 288 782 l 172 782 l 156 858 l 147 858 l 132 782 l 17 782 z "},"°":{"ha":292,"x_min":18,"x_max":283,"o":"m 18 883 q 51 978 18 942 q 149 1014 83 1014 q 249 977 215 1014 q 283 883 283 940 l 283 715 q 249 621 283 658 q 149 583 215 583 q 51 620 83 583 q 18 715 18 657 l 18 883 m 132 708 q 136 692 132 699 q 151 685 140 685 q 166 692 163 685 q 169 708 169 699 l 169 889 q 151 914 169 914 q 132 889 132 914 l 132 708 z "},"'":{"ha":197,"x_min":18,"x_max":181,"o":"m 181 896 l 167 597 l 32 597 l 18 896 l 18 1000 l 181 1000 l 181 896 z "},"\"":{"ha":385,"x_min":18,"x_max":368,"o":"m 181 896 l 167 597 l 32 597 l 18 896 l 18 1000 l 181 1000 l 181 896 m 368 896 l 354 597 l 219 597 l 206 896 l 206 1000 l 368 1000 l 368 896 z "},"‚":{"ha":250,"x_min":17,"x_max":233,"o":"m 35 269 l 233 269 l 165 -160 l 17 -160 l 35 269 z "},"„":{"ha":474,"x_min":17,"x_max":457,"o":"m 35 269 l 233 269 l 165 -160 l 17 -160 l 35 269 m 258 269 l 457 269 l 389 -160 l 240 -160 l 258 269 z "},"~":{"ha":485,"x_min":18,"x_max":467,"o":"m 467 560 q 439 415 467 458 q 353 372 411 372 q 294 381 324 372 q 233 404 264 390 l 225 408 q 181 426 201 419 q 142 433 160 433 q 101 385 101 433 l 101 376 l 18 376 l 18 386 q 136 572 18 572 q 193 564 164 572 q 251 542 222 556 l 260 539 q 306 521 285 528 q 346 514 328 514 q 386 560 386 514 l 386 568 l 467 568 l 467 560 z "},"´":{"ha":240,"x_min":17,"x_max":224,"o":"m 17 782 l 63 972 l 224 972 l 154 782 l 17 782 z "},"`":{"ha":240,"x_min":17,"x_max":224,"o":"m 86 782 l 17 972 l 178 972 l 224 782 l 86 782 z "},"¨":{"ha":414,"x_min":17,"x_max":397,"o":"m 17 876 q 35 946 17 921 q 107 971 54 971 q 179 945 160 971 q 199 876 199 919 q 179 808 199 833 q 108 783 160 783 q 36 808 56 783 q 17 876 17 833 m 215 876 q 234 946 215 921 q 306 971 253 971 q 378 945 358 971 q 397 876 397 919 q 378 808 397 833 q 307 783 358 783 q 235 808 254 783 q 215 876 215 833 z "},"˚":{"ha":268,"x_min":17,"x_max":251,"o":"m 17 878 q 48 953 17 929 q 133 978 79 978 q 219 953 188 978 q 251 878 251 928 q 220 801 251 825 q 135 776 189 776 q 48 801 79 776 q 17 878 17 825 m 86 878 q 135 839 86 839 q 182 878 182 839 q 169 906 182 897 q 133 915 156 915 q 86 878 86 915 z "},"ˇ":{"ha":306,"x_min":17,"x_max":288,"o":"m 288 972 l 228 782 l 76 782 l 17 972 l 132 972 l 149 896 l 156 896 l 172 972 l 288 972 z "},"˘":{"ha":365,"x_min":17,"x_max":349,"o":"m 142 972 q 151 924 142 942 q 183 907 160 907 q 215 924 206 907 q 224 972 224 942 l 349 972 q 308 826 349 871 q 183 782 267 782 q 58 826 100 782 q 17 972 17 871 l 142 972 z "},"˝":{"ha":356,"x_min":17,"x_max":338,"o":"m 17 782 l 63 972 l 188 972 l 118 782 l 17 782 m 167 782 l 213 972 l 338 972 l 268 782 l 167 782 z "},"˙":{"ha":215,"x_min":17,"x_max":199,"o":"m 17 878 q 35 946 17 921 q 107 971 54 971 q 178 945 158 971 q 199 876 199 919 q 179 808 199 833 q 108 783 160 783 q 36 808 56 783 q 17 878 17 833 z "},"˛":{"ha":257,"x_min":17,"x_max":239,"o":"m 236 -4 l 236 -15 q 178 -40 200 -15 q 157 -93 157 -65 q 170 -131 157 -115 q 211 -146 183 -146 q 239 -142 225 -146 l 239 -249 q 160 -260 192 -260 q 53 -227 89 -260 q 17 -150 17 -194 q 31 -98 17 -124 q 72 -51 44 -72 q 140 -17 99 -31 q 236 -4 182 -4 z "},"¸":{"ha":300,"x_min":18,"x_max":283,"o":"m 69 -1 l 153 -1 l 146 -68 q 249 -97 214 -68 q 283 -161 283 -125 q 242 -234 283 -201 q 121 -267 201 -267 q 74 -264 100 -267 q 18 -256 47 -261 l 18 -176 q 63 -181 42 -181 q 112 -172 92 -181 q 132 -149 132 -162 q 110 -127 132 -135 q 47 -119 88 -119 l 69 -1 z "},"B":{"ha":546,"x_min":17,"x_max":536,"o":"m 263 972 q 453 911 386 972 q 519 733 519 850 l 519 726 q 507 632 519 672 q 474 563 494 592 q 429 520 454 535 q 379 504 404 506 l 379 489 q 431 472 403 488 q 482 425 458 456 q 521 352 506 394 q 536 257 536 310 l 536 240 q 464 63 536 126 q 264 0 392 0 l 17 0 l 17 972 l 263 972 m 239 593 l 260 593 q 290 603 282 593 q 297 640 297 614 l 297 733 q 290 770 297 760 q 260 781 282 781 l 239 781 l 239 593 m 239 193 l 263 193 q 293 203 285 193 q 301 240 301 213 l 301 353 q 293 390 301 379 q 261 400 285 400 l 239 400 l 239 193 z "},"C":{"ha":540,"x_min":15,"x_max":525,"o":"m 238 225 q 247 190 238 200 q 271 179 257 179 q 293 190 283 179 q 303 225 303 200 l 303 460 l 525 460 l 525 242 q 456 51 525 115 q 267 -14 388 -14 q 81 50 147 -14 q 15 242 15 114 l 15 731 q 81 922 15 858 q 267 985 147 985 q 456 920 388 985 q 525 731 525 856 l 525 511 l 303 511 l 303 746 q 293 783 303 772 q 271 793 283 793 q 247 783 257 793 q 238 746 238 772 l 238 225 z "},"A":{"ha":528,"x_min":6,"x_max":522,"o":"m 439 974 l 522 0 l 300 0 l 289 221 l 239 221 l 228 0 l 6 0 l 93 974 l 439 974 m 279 414 l 271 589 l 257 589 l 247 414 l 279 414 z "},"±":{"ha":540,"x_min":17,"x_max":522,"o":"m 522 390 l 357 390 l 357 236 l 183 236 l 183 390 l 17 390 l 17 551 l 183 551 l 183 706 l 357 706 l 357 551 l 522 551 l 522 390 m 522 8 l 17 8 l 17 169 l 522 169 l 522 8 z "},"ı":{"ha":247,"x_min":18,"x_max":228,"o":"m 228 708 l 228 0 l 18 0 l 18 708 l 228 708 z "},"·":{"ha":253,"x_min":17,"x_max":235,"o":"m 17 519 q 126 633 17 633 q 207 603 179 633 q 235 518 235 574 q 126 404 235 404 q 17 519 17 404 z "},"ª":{"ha":325,"x_min":17,"x_max":308,"o":"m 181 865 q 163 890 181 890 q 143 865 143 890 l 143 813 l 18 813 l 18 858 q 56 963 18 925 q 161 1000 94 1000 q 269 963 229 1000 q 308 858 308 925 l 308 567 l 181 567 l 181 603 l 169 603 q 89 558 136 558 q 35 583 53 558 q 17 647 17 608 l 17 708 q 44 772 17 747 q 113 797 72 797 l 181 797 l 181 865 m 181 735 l 163 735 q 142 717 142 735 l 142 675 q 158 658 142 658 q 181 672 174 658 l 181 735 z "},"£":{"ha":560,"x_min":15,"x_max":543,"o":"m 272 444 l 496 444 l 496 288 l 269 288 q 260 239 267 261 q 240 193 253 217 l 543 193 l 543 0 l 15 0 l 15 193 q 47 240 36 218 q 60 288 57 261 l 15 288 l 15 444 l 63 444 l 63 807 q 124 940 63 894 q 300 986 185 986 q 480 919 417 986 q 543 731 543 853 l 543 513 l 333 513 l 333 747 q 303 793 333 793 q 272 756 272 793 l 272 444 z "},"º":{"ha":324,"x_min":17,"x_max":306,"o":"m 17 858 q 53 960 17 921 q 160 1000 89 1000 q 268 960 231 1000 q 306 858 306 921 l 306 700 q 268 598 306 638 q 160 558 231 558 q 53 598 89 558 q 17 700 17 638 l 17 858 m 142 693 q 161 668 142 668 q 181 693 181 668 l 181 864 q 161 890 181 890 q 142 864 142 890 l 142 693 z "},"¹":{"ha":194,"x_min":18,"x_max":178,"o":"m 56 572 l 56 871 l 50 879 l 18 879 l 18 986 l 178 986 l 178 572 l 56 572 z "},"²":{"ha":313,"x_min":17,"x_max":294,"o":"m 17 878 q 53 963 17 926 q 157 1000 90 1000 q 259 963 224 1000 q 294 878 294 926 l 294 858 q 285 794 294 818 q 260 756 275 769 q 227 735 244 742 q 193 724 210 728 l 190 722 q 161 709 174 717 q 149 685 149 701 l 149 679 l 294 679 l 294 572 l 21 572 l 21 654 q 38 724 21 700 q 92 765 56 749 l 100 769 q 138 789 124 781 q 160 805 153 797 q 171 822 168 813 q 174 844 174 832 l 174 864 q 169 887 174 881 q 156 893 164 893 q 142 887 146 893 q 138 864 138 881 l 138 821 l 17 821 l 17 878 z "},"³":{"ha":307,"x_min":15,"x_max":293,"o":"m 174 876 q 154 894 174 894 q 136 876 136 894 l 136 851 l 15 851 l 15 890 q 49 973 15 946 q 156 1000 82 1000 q 260 973 228 1000 q 293 889 293 946 l 293 883 q 271 815 293 835 q 221 792 249 794 l 221 782 q 271 757 249 781 q 293 686 293 733 l 293 681 q 260 599 293 625 q 157 572 228 572 q 49 599 83 572 q 15 682 15 626 l 15 721 l 136 721 l 136 696 q 154 678 136 678 q 174 696 174 678 l 174 704 q 166 740 174 731 q 126 749 158 749 l 111 749 l 111 822 l 126 822 q 166 832 158 822 q 174 868 174 842 l 174 876 z "},"¼":{"ha":642,"x_min":18,"x_max":625,"o":"m 256 0 l 133 0 l 286 1000 l 407 1000 l 256 0 m 56 572 l 56 871 l 50 879 l 18 879 l 18 986 l 178 986 l 178 572 l 56 572 m 625 414 l 625 0 l 504 0 l 504 111 l 358 111 l 358 414 l 479 414 l 479 219 l 504 219 l 504 414 l 625 414 z "},"¾":{"ha":729,"x_min":18,"x_max":713,"o":"m 346 0 l 224 0 l 376 1000 l 497 1000 l 346 0 m 176 876 q 157 894 176 894 q 139 876 139 894 l 139 851 l 18 851 l 18 890 q 51 973 18 946 q 158 1000 85 1000 q 263 973 231 1000 q 296 889 296 946 l 296 883 q 274 815 296 835 q 224 792 251 794 l 224 782 q 274 757 251 781 q 296 686 296 733 l 296 681 q 263 599 296 625 q 160 572 231 572 q 52 599 86 572 q 18 682 18 626 l 18 721 l 139 721 l 139 696 q 157 678 139 678 q 176 696 176 678 l 176 704 q 169 740 176 731 q 129 749 161 749 l 114 749 l 114 822 l 129 822 q 169 832 161 822 q 176 868 176 842 l 176 876 m 713 414 l 713 0 l 592 0 l 592 111 l 446 111 l 446 414 l 567 414 l 567 219 l 592 219 l 592 414 l 713 414 z "},"½":{"ha":639,"x_min":18,"x_max":619,"o":"m 256 0 l 133 0 l 286 1000 l 407 1000 l 256 0 m 56 572 l 56 871 l 50 879 l 18 879 l 18 986 l 178 986 l 178 572 l 56 572 m 342 306 q 378 391 342 354 q 482 428 415 428 q 584 391 549 428 q 619 306 619 354 l 619 286 q 610 222 619 246 q 585 183 600 197 q 552 163 569 169 q 518 151 535 156 l 515 150 q 486 137 499 144 q 474 113 474 129 l 474 107 l 619 107 l 619 0 l 346 0 l 346 82 q 363 152 346 128 q 417 193 381 176 l 425 197 q 463 217 449 208 q 485 233 478 225 q 496 250 493 240 q 499 272 499 260 l 499 292 q 494 315 499 308 q 481 321 489 321 q 467 315 471 321 q 463 292 463 308 l 463 249 l 342 249 l 342 306 z "},"¯":{"ha":335,"x_min":17,"x_max":317,"o":"m 317 797 l 17 797 l 17 958 l 317 958 l 317 797 z "},"E":{"ha":388,"x_min":17,"x_max":376,"o":"m 239 779 l 239 607 l 372 607 l 372 414 l 239 414 l 239 193 l 376 193 l 376 0 l 17 0 l 17 972 l 375 972 l 375 779 l 239 779 z "},";":{"ha":251,"x_min":-8,"x_max":235,"o":"m 17 603 q 126 717 17 717 q 207 687 179 717 q 235 601 235 657 q 126 488 235 488 q 17 603 17 488 m 40 218 l 235 218 l 124 -137 l -8 -137 l 40 218 z "},"ƒ":{"ha":442,"x_min":0,"x_max":438,"o":"m 114 760 q 128 874 114 828 q 170 947 143 919 q 235 987 197 975 q 319 999 274 999 q 376 995 347 999 q 438 986 406 992 l 436 806 q 415 810 425 808 q 393 811 404 811 q 344 797 365 811 q 324 747 324 783 l 324 708 l 436 708 l 436 528 l 324 528 l 324 -53 q 309 -167 324 -121 q 267 -240 294 -212 q 203 -280 240 -268 q 118 -292 165 -292 q 0 -279 65 -292 l 1 -100 q 24 -104 13 -103 q 46 -106 35 -106 q 94 -92 74 -106 q 114 -42 114 -78 l 114 528 l 54 528 l 54 708 l 114 708 l 114 760 z "},"⁴":{"ha":301,"x_min":17,"x_max":283,"o":"m 283 986 l 283 572 l 163 572 l 163 683 l 17 683 l 17 986 l 138 986 l 138 792 l 163 792 l 163 986 l 283 986 z "},"μ":{"ha":692,"x_min":17,"x_max":675,"o":"m 17 972 l 675 972 l 675 0 l 17 0 l 17 972 m 346 543 l 564 903 l 128 903 l 346 543 m 86 115 l 311 486 l 86 857 l 86 115 m 606 115 l 606 857 l 381 486 l 606 115 m 128 69 l 564 69 l 346 429 l 128 69 z "},"ð":{"ha":506,"x_min":14,"x_max":490,"o":"m 14 493 q 29 588 14 546 q 69 660 44 629 q 124 706 93 690 q 185 722 154 722 q 251 700 221 722 q 296 629 281 678 l 310 633 q 277 760 299 706 q 217 854 256 814 l 115 786 l 85 828 l 176 889 q 43 953 126 925 l 63 1000 q 161 973 115 989 q 247 936 207 957 l 343 1000 l 372 958 l 294 907 q 490 486 490 769 l 490 222 q 474 128 490 171 q 428 53 458 85 q 351 4 397 22 q 244 -14 306 -14 q 73 44 132 -14 q 14 193 14 101 l 14 493 m 224 211 q 253 167 224 167 q 281 211 281 167 l 281 497 q 253 542 281 542 q 224 497 224 542 l 224 211 z "},"ß":{"ha":546,"x_min":17,"x_max":535,"o":"m 17 729 q 72 908 17 844 q 247 972 128 972 l 265 972 q 455 910 390 972 q 519 733 519 849 l 519 726 q 506 632 519 672 q 473 563 493 592 q 428 520 453 535 q 378 504 403 506 l 378 490 q 430 472 403 489 q 481 425 457 456 q 519 352 504 394 q 535 257 535 310 l 535 240 q 469 63 535 126 q 278 0 404 0 l 267 0 l 267 193 l 278 193 q 308 210 300 193 q 315 258 315 226 l 315 335 q 307 381 315 361 q 276 400 299 400 l 268 400 l 268 593 l 276 593 q 305 610 297 593 q 313 658 313 626 l 313 728 q 302 769 313 760 q 275 779 292 779 l 271 779 q 249 770 258 779 q 239 729 239 761 l 239 0 l 17 0 l 17 729 z "},"¤":{"ha":692,"x_min":17,"x_max":675,"o":"m 17 972 l 675 972 l 675 0 l 17 0 l 17 972 m 346 543 l 564 903 l 128 903 l 346 543 m 86 115 l 311 486 l 86 857 l 86 115 m 606 115 l 606 857 l 381 486 l 606 115 m 128 69 l 564 69 l 346 429 l 128 69 z "},"À":{"ha":528,"x_min":6,"x_max":522,"o":"m 439 974 l 522 0 l 300 0 l 289 221 l 239 221 l 228 0 l 6 0 l 93 974 l 439 974 m 279 414 l 271 589 l 257 589 l 247 414 l 279 414 m 200 1028 l 131 1218 l 292 1218 l 338 1028 l 200 1028 z "},"Á":{"ha":528,"x_min":6,"x_max":522,"o":"m 439 974 l 522 0 l 300 0 l 289 221 l 239 221 l 228 0 l 6 0 l 93 974 l 439 974 m 279 414 l 271 589 l 257 589 l 247 414 l 279 414 m 190 1028 l 236 1218 l 397 1218 l 328 1028 l 190 1028 z "},"Â":{"ha":528,"x_min":6,"x_max":522,"o":"m 439 974 l 522 0 l 300 0 l 289 221 l 239 221 l 228 0 l 6 0 l 93 974 l 439 974 m 279 414 l 271 589 l 257 589 l 247 414 l 279 414 m 128 1028 l 188 1218 l 339 1218 l 399 1028 l 283 1028 l 267 1104 l 258 1104 l 243 1028 l 128 1028 z "},"Ã":{"ha":528,"x_min":6,"x_max":522,"o":"m 439 974 l 522 0 l 300 0 l 289 221 l 239 221 l 228 0 l 6 0 l 93 974 l 439 974 m 279 414 l 271 589 l 257 589 l 247 414 l 279 414 m 399 1203 q 381 1069 399 1111 q 329 1028 364 1028 q 293 1037 311 1028 q 258 1060 275 1046 l 253 1064 q 227 1081 239 1075 q 206 1088 215 1088 q 182 1043 182 1088 l 182 1033 l 131 1033 l 131 1044 q 149 1173 131 1128 q 203 1218 167 1218 q 235 1210 218 1218 q 269 1189 253 1201 l 275 1185 q 302 1167 290 1174 q 325 1161 314 1161 q 350 1203 350 1161 l 350 1214 l 399 1214 l 399 1203 z "},"Ä":{"ha":528,"x_min":6,"x_max":522,"o":"m 439 974 l 522 0 l 300 0 l 289 221 l 239 221 l 228 0 l 6 0 l 93 974 l 439 974 m 279 414 l 271 589 l 257 589 l 247 414 l 279 414 m 74 1122 q 92 1192 74 1167 q 164 1217 111 1217 q 236 1191 217 1217 q 256 1122 256 1165 q 236 1054 256 1079 q 165 1029 217 1029 q 93 1054 113 1029 q 74 1122 74 1079 m 272 1122 q 291 1192 272 1167 q 363 1217 310 1217 q 435 1191 415 1217 q 454 1122 454 1165 q 435 1054 454 1079 q 364 1029 415 1029 q 292 1054 311 1029 q 272 1122 272 1079 z "},"Å":{"ha":528,"x_min":6,"x_max":522,"o":"m 439 974 l 522 0 l 300 0 l 289 221 l 239 221 l 228 0 l 6 0 l 93 974 l 439 974 m 279 414 l 271 589 l 257 589 l 247 414 l 279 414 m 147 1124 q 178 1199 147 1175 q 264 1224 210 1224 q 350 1199 318 1224 q 382 1124 382 1174 q 351 1047 382 1071 q 265 1022 319 1022 q 178 1047 210 1022 q 147 1124 147 1071 m 217 1124 q 265 1085 217 1085 q 313 1124 313 1085 q 299 1152 313 1143 q 264 1161 286 1161 q 217 1124 217 1161 z "},"Æ":{"ha":671,"x_min":6,"x_max":658,"o":"m 521 779 l 521 607 l 654 607 l 654 414 l 521 414 l 521 193 l 658 193 l 658 0 l 299 0 l 299 221 l 250 221 l 228 0 l 6 0 l 121 972 l 657 972 l 657 779 l 521 779 m 299 414 l 299 589 l 285 589 l 268 414 l 299 414 z "},"Ç":{"ha":540,"x_min":15,"x_max":525,"o":"m 238 225 q 247 190 238 200 q 271 179 257 179 q 293 190 283 179 q 303 225 303 200 l 303 460 l 525 460 l 525 242 q 456 51 525 115 q 267 -14 388 -14 q 81 50 147 -14 q 15 242 15 114 l 15 731 q 81 922 15 858 q 267 985 147 985 q 456 920 388 985 q 525 731 525 856 l 525 511 l 303 511 l 303 746 q 293 783 303 772 q 271 793 283 793 q 247 783 257 793 q 238 746 238 772 l 238 225 m 232 -1 l 315 -1 l 308 -68 q 411 -97 376 -68 q 446 -161 446 -125 q 405 -234 446 -201 q 283 -267 364 -267 q 236 -264 263 -267 q 181 -256 210 -261 l 181 -176 q 225 -181 204 -181 q 274 -172 254 -181 q 294 -149 294 -162 q 272 -127 294 -135 q 210 -119 250 -119 l 232 -1 z "},"Ð":{"ha":567,"x_min":10,"x_max":553,"o":"m 296 972 q 484 913 415 972 q 553 729 553 854 l 553 242 q 484 58 553 117 q 296 0 415 0 l 44 0 l 44 411 l 10 411 l 10 556 l 44 556 l 44 972 l 296 972 m 268 556 l 296 556 l 296 411 l 268 411 l 268 192 l 294 192 q 322 201 313 192 q 331 239 331 211 l 331 733 q 322 770 331 761 q 293 779 313 779 l 268 779 l 268 556 z "},"Đ":{"ha":567,"x_min":10,"x_max":553,"o":"m 296 972 q 484 913 415 972 q 553 729 553 854 l 553 242 q 484 58 553 117 q 296 0 415 0 l 44 0 l 44 411 l 10 411 l 10 556 l 44 556 l 44 972 l 296 972 m 268 556 l 296 556 l 296 411 l 268 411 l 268 192 l 294 192 q 322 201 313 192 q 331 239 331 211 l 331 733 q 322 770 331 761 q 293 779 313 779 l 268 779 l 268 556 z "},"È":{"ha":388,"x_min":17,"x_max":376,"o":"m 239 779 l 239 607 l 372 607 l 372 414 l 239 414 l 239 193 l 376 193 l 376 0 l 17 0 l 17 972 l 375 972 l 375 779 l 239 779 m 132 1028 l 63 1218 l 224 1218 l 269 1028 l 132 1028 z "},"É":{"ha":388,"x_min":17,"x_max":376,"o":"m 239 779 l 239 607 l 372 607 l 372 414 l 239 414 l 239 193 l 376 193 l 376 0 l 17 0 l 17 972 l 375 972 l 375 779 l 239 779 m 122 1028 l 168 1218 l 329 1218 l 260 1028 l 122 1028 z "},"Ê":{"ha":388,"x_min":17,"x_max":376,"o":"m 239 779 l 239 607 l 372 607 l 372 414 l 239 414 l 239 193 l 376 193 l 376 0 l 17 0 l 17 972 l 375 972 l 375 779 l 239 779 m 60 1028 l 119 1218 l 271 1218 l 331 1028 l 215 1028 l 199 1104 l 190 1104 l 175 1028 l 60 1028 z "},"Ë":{"ha":388,"x_min":4,"x_max":385,"o":"m 239 779 l 239 607 l 372 607 l 372 414 l 239 414 l 239 193 l 376 193 l 376 0 l 17 0 l 17 972 l 375 972 l 375 779 l 239 779 m 4 1122 q 23 1192 4 1167 q 94 1217 42 1217 q 167 1191 147 1217 q 186 1122 186 1165 q 167 1054 186 1079 q 96 1029 147 1029 q 24 1054 43 1029 q 4 1122 4 1079 m 203 1122 q 222 1192 203 1167 q 293 1217 240 1217 q 365 1191 346 1217 q 385 1122 385 1165 q 365 1054 385 1079 q 294 1029 346 1029 q 222 1054 242 1029 q 203 1122 203 1079 z "},"Ì":{"ha":254,"x_min":-7,"x_max":239,"o":"m 239 972 l 239 0 l 17 0 l 17 972 l 239 972 m 63 1028 l -7 1218 l 154 1218 l 200 1028 l 63 1028 z "},"Í":{"ha":254,"x_min":17,"x_max":261,"o":"m 239 972 l 239 0 l 17 0 l 17 972 l 239 972 m 54 1028 l 100 1218 l 261 1218 l 192 1028 l 54 1028 z "},"Î":{"ha":254,"x_min":-8,"x_max":263,"o":"m 239 972 l 239 0 l 17 0 l 17 972 l 239 972 m -8 1028 l 51 1218 l 203 1218 l 263 1028 l 147 1028 l 131 1104 l 122 1104 l 107 1028 l -8 1028 z "},"Ï":{"ha":254,"x_min":-64,"x_max":317,"o":"m 239 972 l 239 0 l 17 0 l 17 972 l 239 972 m -64 1122 q -45 1192 -64 1167 q 26 1217 -26 1217 q 99 1191 79 1217 q 118 1122 118 1165 q 99 1054 118 1079 q 28 1029 79 1029 q -44 1054 -25 1029 q -64 1122 -64 1079 m 135 1122 q 153 1192 135 1167 q 225 1217 172 1217 q 297 1191 278 1217 q 317 1122 317 1165 q 297 1054 317 1079 q 226 1029 278 1029 q 154 1054 174 1029 q 135 1122 135 1079 z "},"Ł":{"ha":379,"x_min":-65,"x_max":375,"o":"m 239 972 l 239 193 l 375 193 l 375 0 l 17 0 l 17 972 l 239 972 m 324 515 l -21 397 l -65 533 l 279 653 l 324 515 z "},"Ñ":{"ha":557,"x_min":15,"x_max":542,"o":"m 542 972 l 542 0 l 300 0 l 201 582 l 189 582 l 238 0 l 15 0 l 15 972 l 257 972 l 361 386 l 374 386 l 319 972 l 542 972 m 411 1203 q 394 1069 411 1111 q 342 1028 376 1028 q 306 1037 324 1028 q 271 1060 288 1046 l 265 1064 q 240 1081 251 1075 q 218 1088 228 1088 q 194 1043 194 1088 l 194 1033 l 143 1033 l 143 1044 q 161 1173 143 1128 q 215 1218 179 1218 q 248 1210 231 1218 q 282 1189 265 1201 l 288 1185 q 315 1167 303 1174 q 338 1161 326 1161 q 363 1203 363 1161 l 363 1214 l 411 1214 l 411 1203 z "},"Ò":{"ha":540,"x_min":15,"x_max":525,"o":"m 15 731 q 81 922 15 858 q 267 986 147 986 q 456 922 388 986 q 525 731 525 857 l 525 243 q 456 51 525 117 q 267 -14 388 -14 q 81 51 147 -14 q 15 243 15 115 l 15 731 m 238 225 q 247 190 238 200 q 269 179 257 179 q 293 190 283 179 q 303 225 303 200 l 303 747 q 293 783 303 774 q 269 793 283 793 q 247 783 257 793 q 238 747 238 774 l 238 225 m 206 1028 l 136 1218 l 297 1218 l 343 1028 l 206 1028 z "},"Ó":{"ha":540,"x_min":15,"x_max":525,"o":"m 15 731 q 81 922 15 858 q 267 986 147 986 q 456 922 388 986 q 525 731 525 857 l 525 243 q 456 51 525 117 q 267 -14 388 -14 q 81 51 147 -14 q 15 243 15 115 l 15 731 m 238 225 q 247 190 238 200 q 269 179 257 179 q 293 190 283 179 q 303 225 303 200 l 303 747 q 293 783 303 774 q 269 793 283 793 q 247 783 257 793 q 238 747 238 774 l 238 225 m 196 1028 l 242 1218 l 403 1218 l 333 1028 l 196 1028 z "},"Ô":{"ha":540,"x_min":15,"x_max":525,"o":"m 15 731 q 81 922 15 858 q 267 986 147 986 q 456 922 388 986 q 525 731 525 857 l 525 243 q 456 51 525 117 q 267 -14 388 -14 q 81 51 147 -14 q 15 243 15 115 l 15 731 m 238 225 q 247 190 238 200 q 269 179 257 179 q 293 190 283 179 q 303 225 303 200 l 303 747 q 293 783 303 774 q 269 793 283 793 q 247 783 257 793 q 238 747 238 774 l 238 225 m 135 1028 l 194 1218 l 346 1218 l 406 1028 l 290 1028 l 274 1104 l 265 1104 l 250 1028 l 135 1028 z "},"Õ":{"ha":540,"x_min":15,"x_max":525,"o":"m 15 731 q 81 922 15 858 q 267 986 147 986 q 456 922 388 986 q 525 731 525 857 l 525 243 q 456 51 525 117 q 267 -14 388 -14 q 81 51 147 -14 q 15 243 15 115 l 15 731 m 238 225 q 247 190 238 200 q 269 179 257 179 q 293 190 283 179 q 303 225 303 200 l 303 747 q 293 783 303 774 q 269 793 283 793 q 247 783 257 793 q 238 747 238 774 l 238 225 m 404 1203 q 387 1069 404 1111 q 335 1028 369 1028 q 299 1037 317 1028 q 264 1060 281 1046 l 258 1064 q 233 1081 244 1075 q 211 1088 221 1088 q 188 1043 188 1088 l 188 1033 l 136 1033 l 136 1044 q 154 1173 136 1128 q 208 1218 172 1218 q 241 1210 224 1218 q 275 1189 258 1201 l 281 1185 q 308 1167 296 1174 q 331 1161 319 1161 q 356 1203 356 1161 l 356 1214 l 404 1214 l 404 1203 z "},"Ö":{"ha":540,"x_min":15,"x_max":525,"o":"m 15 731 q 81 922 15 858 q 267 986 147 986 q 456 922 388 986 q 525 731 525 857 l 525 243 q 456 51 525 117 q 267 -14 388 -14 q 81 51 147 -14 q 15 243 15 115 l 15 731 m 238 225 q 247 190 238 200 q 269 179 257 179 q 293 190 283 179 q 303 225 303 200 l 303 747 q 293 783 303 774 q 269 793 283 793 q 247 783 257 793 q 238 747 238 774 l 238 225 m 79 1122 q 98 1192 79 1167 q 169 1217 117 1217 q 242 1191 222 1217 q 261 1122 261 1165 q 242 1054 261 1079 q 171 1029 222 1029 q 99 1054 118 1029 q 79 1122 79 1079 m 278 1122 q 297 1192 278 1167 q 368 1217 315 1217 q 440 1191 421 1217 q 460 1122 460 1165 q 440 1054 460 1079 q 369 1029 421 1029 q 297 1054 317 1029 q 278 1122 278 1079 z "},"Ø":{"ha":540,"x_min":15,"x_max":525,"o":"m 15 731 q 81 922 15 858 q 267 986 147 986 q 453 924 386 986 l 482 986 l 525 965 l 486 883 q 525 731 525 821 l 525 243 q 456 51 525 117 q 267 -14 388 -14 q 88 46 149 -14 l 58 -14 l 15 7 l 53 86 q 15 243 15 147 l 15 731 m 238 472 l 303 608 l 303 747 q 293 783 303 774 q 269 793 283 793 q 247 783 257 793 q 238 747 238 774 l 238 472 m 238 225 q 247 190 238 200 q 269 179 257 179 q 293 190 283 179 q 303 225 303 200 l 303 497 l 238 361 l 238 225 z "},"Œ":{"ha":665,"x_min":15,"x_max":654,"o":"m 517 779 l 517 607 l 650 607 l 650 414 l 517 414 l 517 193 l 654 193 l 654 0 l 267 0 q 81 65 147 0 q 15 257 15 129 l 15 717 q 81 908 15 844 q 267 972 147 972 l 651 972 l 651 779 l 517 779 m 238 239 q 248 203 238 214 q 274 193 258 193 l 294 193 l 294 779 l 274 779 q 248 769 258 779 q 238 732 238 760 l 238 239 z "},"Š":{"ha":540,"x_min":15,"x_max":525,"o":"m 301 633 l 301 747 q 271 793 301 793 q 239 747 239 793 l 239 675 q 242 644 239 657 q 256 618 244 631 q 291 591 268 606 q 354 556 314 576 l 396 536 q 458 494 433 517 q 498 440 483 471 q 519 365 513 408 q 525 263 525 322 l 525 243 q 458 53 525 119 q 267 -14 390 -14 q 80 51 144 -14 q 15 243 15 117 l 15 339 l 238 339 l 238 226 q 271 179 238 179 q 303 225 303 179 l 303 300 q 300 332 303 319 q 286 356 297 344 q 254 381 275 368 q 196 414 233 394 l 147 438 q 85 481 110 457 q 44 538 60 504 q 23 615 29 571 q 17 717 17 658 l 17 731 q 81 922 17 857 q 267 986 144 986 q 456 919 389 986 q 524 731 524 853 l 524 633 l 301 633 m 406 1219 l 346 1029 l 194 1029 l 135 1219 l 250 1219 l 267 1143 l 274 1143 l 290 1219 l 406 1219 z "},"Ù":{"ha":536,"x_min":15,"x_max":521,"o":"m 238 972 l 238 225 q 247 190 238 200 q 268 179 256 179 q 290 190 281 179 q 299 225 299 200 l 299 972 l 521 972 l 521 243 q 453 51 521 117 q 264 -14 385 -14 q 80 51 144 -14 q 15 243 15 115 l 15 972 l 238 972 m 204 1028 l 135 1218 l 296 1218 l 342 1028 l 204 1028 z "},"Ú":{"ha":536,"x_min":15,"x_max":521,"o":"m 238 972 l 238 225 q 247 190 238 200 q 268 179 256 179 q 290 190 281 179 q 299 225 299 200 l 299 972 l 521 972 l 521 243 q 453 51 521 117 q 264 -14 385 -14 q 80 51 144 -14 q 15 243 15 115 l 15 972 l 238 972 m 196 1028 l 242 1218 l 403 1218 l 333 1028 l 196 1028 z "},"Û":{"ha":536,"x_min":15,"x_max":521,"o":"m 238 972 l 238 225 q 247 190 238 200 q 268 179 256 179 q 290 190 281 179 q 299 225 299 200 l 299 972 l 521 972 l 521 243 q 453 51 521 117 q 264 -14 385 -14 q 80 51 144 -14 q 15 243 15 115 l 15 972 l 238 972 m 133 1028 l 193 1218 l 344 1218 l 404 1028 l 289 1028 l 272 1104 l 264 1104 l 249 1028 l 133 1028 z "},"Ü":{"ha":536,"x_min":15,"x_max":521,"o":"m 238 972 l 238 225 q 247 190 238 200 q 268 179 256 179 q 290 190 281 179 q 299 225 299 200 l 299 972 l 521 972 l 521 243 q 453 51 521 117 q 264 -14 385 -14 q 80 51 144 -14 q 15 243 15 115 l 15 972 l 238 972 m 78 1122 q 97 1192 78 1167 q 168 1217 115 1217 q 240 1191 221 1217 q 260 1122 260 1165 q 240 1054 260 1079 q 169 1029 221 1029 q 97 1054 117 1029 q 78 1122 78 1079 m 276 1122 q 295 1192 276 1167 q 367 1217 314 1217 q 439 1191 419 1217 q 458 1122 458 1165 q 439 1054 458 1079 q 368 1029 419 1029 q 296 1054 315 1029 q 276 1122 276 1079 z "},"Ÿ":{"ha":517,"x_min":6,"x_max":511,"o":"m 228 972 l 251 574 l 267 574 l 289 972 l 511 972 l 368 267 l 368 0 l 146 0 l 146 267 l 6 972 l 228 972 m 68 1122 q 87 1192 68 1167 q 158 1217 106 1217 q 231 1191 211 1217 q 250 1122 250 1165 q 231 1054 250 1079 q 160 1029 211 1029 q 88 1054 107 1029 q 68 1122 68 1079 m 267 1122 q 285 1192 267 1167 q 357 1217 304 1217 q 429 1191 410 1217 q 449 1122 449 1165 q 429 1054 449 1079 q 358 1029 410 1029 q 286 1054 306 1029 q 267 1122 267 1079 z "},"Ý":{"ha":517,"x_min":6,"x_max":511,"o":"m 228 972 l 251 574 l 267 574 l 289 972 l 511 972 l 368 267 l 368 0 l 146 0 l 146 267 l 6 972 l 228 972 m 185 1028 l 231 1218 l 392 1218 l 322 1028 l 185 1028 z "},"Ž":{"ha":474,"x_min":8,"x_max":467,"o":"m 451 972 l 451 778 l 236 204 l 244 193 l 467 193 l 467 0 l 8 0 l 8 193 l 224 768 l 214 779 l 22 779 l 22 972 l 451 972 m 372 1219 l 313 1029 l 161 1029 l 101 1219 l 217 1219 l 233 1143 l 240 1143 l 257 1219 l 372 1219 z "},"ﬁ":{"ha":624,"x_min":0,"x_max":617,"o":"m 60 760 q 74 874 60 828 q 115 947 89 919 q 180 987 142 975 q 264 999 218 999 q 321 995 292 999 q 382 986 350 992 l 381 806 q 359 810 369 808 q 338 811 349 811 q 290 797 310 811 q 269 747 269 783 l 269 708 l 381 708 l 381 528 l 269 528 l 269 0 l 60 0 l 60 528 l 0 528 l 0 708 l 60 708 l 60 760 m 385 864 q 415 942 385 917 q 499 967 446 967 q 584 942 551 967 q 617 864 617 917 q 585 786 617 811 q 500 761 553 761 q 416 786 447 761 q 385 864 385 811 m 607 708 l 607 0 l 396 0 l 396 708 l 607 708 z "},"ﬂ":{"ha":624,"x_min":0,"x_max":608,"o":"m 60 760 q 74 874 60 828 q 115 947 89 919 q 180 987 142 975 q 264 999 218 999 q 321 995 292 999 q 382 986 350 992 l 381 806 q 359 810 369 808 q 338 811 349 811 q 290 797 310 811 q 269 747 269 783 l 269 708 l 381 708 l 381 528 l 269 528 l 269 0 l 60 0 l 60 528 l 0 528 l 0 708 l 60 708 l 60 760 m 399 1000 l 608 1000 l 608 0 l 399 0 l 399 1000 z "},"à":{"ha":506,"x_min":14,"x_max":490,"o":"m 281 497 q 253 542 281 542 q 225 497 225 542 l 225 408 l 15 408 l 15 485 q 78 659 15 596 q 250 722 140 722 q 426 658 361 722 q 490 485 490 594 l 490 0 l 281 0 l 281 60 l 275 60 q 146 -14 222 -14 q 51 26 88 -14 q 14 132 14 67 l 14 235 q 58 341 14 300 q 172 382 103 382 l 281 382 l 281 497 m 281 279 l 260 279 q 224 249 224 279 l 224 181 q 249 149 224 149 q 281 174 269 149 l 281 279 m 188 764 l 118 954 l 279 954 l 325 764 l 188 764 z "},"á":{"ha":506,"x_min":14,"x_max":490,"o":"m 281 497 q 253 542 281 542 q 225 497 225 542 l 225 408 l 15 408 l 15 485 q 78 659 15 596 q 250 722 140 722 q 426 658 361 722 q 490 485 490 594 l 490 0 l 281 0 l 281 60 l 275 60 q 146 -14 222 -14 q 51 26 88 -14 q 14 132 14 67 l 14 235 q 58 341 14 300 q 172 382 103 382 l 281 382 l 281 497 m 281 279 l 260 279 q 224 249 224 279 l 224 181 q 249 149 224 149 q 281 174 269 149 l 281 279 m 178 764 l 224 954 l 385 954 l 315 764 l 178 764 z "},"â":{"ha":506,"x_min":14,"x_max":490,"o":"m 281 497 q 253 542 281 542 q 225 497 225 542 l 225 408 l 15 408 l 15 485 q 78 659 15 596 q 250 722 140 722 q 426 658 361 722 q 490 485 490 594 l 490 0 l 281 0 l 281 60 l 275 60 q 146 -14 222 -14 q 51 26 88 -14 q 14 132 14 67 l 14 235 q 58 341 14 300 q 172 382 103 382 l 281 382 l 281 497 m 281 279 l 260 279 q 224 249 224 279 l 224 181 q 249 149 224 149 q 281 174 269 149 l 281 279 m 115 764 l 175 954 l 326 954 l 386 764 l 271 764 l 254 840 l 246 840 l 231 764 l 115 764 z "},"ã":{"ha":506,"x_min":14,"x_max":490,"o":"m 281 497 q 253 542 281 542 q 225 497 225 542 l 225 408 l 15 408 l 15 485 q 78 659 15 596 q 250 722 140 722 q 426 658 361 722 q 490 485 490 594 l 490 0 l 281 0 l 281 60 l 275 60 q 146 -14 222 -14 q 51 26 88 -14 q 14 132 14 67 l 14 235 q 58 341 14 300 q 172 382 103 382 l 281 382 l 281 497 m 281 279 l 260 279 q 224 249 224 279 l 224 181 q 249 149 224 149 q 281 174 269 149 l 281 279 m 386 939 q 369 806 386 847 q 317 764 351 764 q 281 773 299 764 q 246 796 263 782 l 240 800 q 215 817 226 811 q 193 824 203 824 q 169 779 169 824 l 169 769 l 118 769 l 118 781 q 136 909 118 864 q 190 954 154 954 q 223 946 206 954 q 257 925 240 938 l 263 921 q 290 903 278 910 q 313 897 301 897 q 338 939 338 897 l 338 950 l 386 950 l 386 939 z "},"ä":{"ha":506,"x_min":14,"x_max":490,"o":"m 281 497 q 253 542 281 542 q 225 497 225 542 l 225 408 l 15 408 l 15 485 q 78 659 15 596 q 250 722 140 722 q 426 658 361 722 q 490 485 490 594 l 490 0 l 281 0 l 281 60 l 275 60 q 146 -14 222 -14 q 51 26 88 -14 q 14 132 14 67 l 14 235 q 58 341 14 300 q 172 382 103 382 l 281 382 l 281 497 m 281 279 l 260 279 q 224 249 224 279 l 224 181 q 249 149 224 149 q 281 174 269 149 l 281 279 m 61 858 q 80 928 61 903 q 151 953 99 953 q 224 927 204 953 q 243 858 243 901 q 224 790 243 815 q 153 765 204 765 q 81 790 100 765 q 61 858 61 815 m 260 858 q 278 928 260 903 q 350 953 297 953 q 422 927 403 953 q 442 858 442 901 q 422 790 442 815 q 351 765 403 765 q 279 790 299 765 q 260 858 260 815 z "},"å":{"ha":506,"x_min":14,"x_max":490,"o":"m 281 497 q 253 542 281 542 q 225 497 225 542 l 225 408 l 15 408 l 15 485 q 78 659 15 596 q 250 722 140 722 q 426 658 361 722 q 490 485 490 594 l 490 0 l 281 0 l 281 60 l 275 60 q 146 -14 222 -14 q 51 26 88 -14 q 14 132 14 67 l 14 235 q 58 341 14 300 q 172 382 103 382 l 281 382 l 281 497 m 281 279 l 260 279 q 224 249 224 279 l 224 181 q 249 149 224 149 q 281 174 269 149 l 281 279 m 135 860 q 166 935 135 911 q 251 960 197 960 q 338 935 306 960 q 369 860 369 910 q 338 783 369 807 q 253 758 307 758 q 166 783 197 758 q 135 860 135 807 m 204 860 q 253 821 204 821 q 300 860 300 821 q 287 888 300 879 q 251 897 274 897 q 204 860 204 897 z "},"æ":{"ha":772,"x_min":14,"x_max":757,"o":"m 281 497 q 253 542 281 542 q 225 497 225 542 l 225 408 l 15 408 l 15 485 q 78 659 15 596 q 250 722 140 722 q 321 712 290 722 q 376 682 351 701 l 390 682 q 446 712 415 701 q 517 722 476 722 q 692 658 628 722 q 757 485 757 594 l 757 307 l 490 307 l 490 211 q 519 167 490 167 q 547 211 547 167 l 547 269 l 757 269 l 757 224 q 692 50 757 114 q 517 -14 628 -14 q 389 17 440 -14 q 313 106 338 49 l 297 106 q 229 15 267 43 q 146 -14 192 -14 q 51 27 88 -14 q 14 133 14 68 l 14 236 q 58 341 14 300 q 172 382 103 382 l 281 382 l 281 497 m 490 419 l 547 419 l 547 497 q 519 542 547 542 q 490 497 490 542 l 490 419 m 281 281 l 260 281 q 224 249 224 281 l 224 181 q 249 150 224 150 q 281 174 269 150 l 281 281 z "},"ç":{"ha":506,"x_min":14,"x_max":490,"o":"m 224 211 q 251 167 224 167 q 281 211 281 167 l 281 332 l 490 332 l 490 222 q 426 50 490 114 q 250 -14 361 -14 q 76 49 139 -14 q 14 222 14 113 l 14 485 q 76 659 14 596 q 250 722 139 722 q 426 658 361 722 q 490 485 490 594 l 490 376 l 281 376 l 281 497 q 251 542 281 542 q 224 497 224 542 l 224 211 m 215 -1 l 299 -1 l 292 -68 q 394 -97 360 -68 q 429 -161 429 -125 q 388 -234 429 -201 q 267 -267 347 -267 q 219 -264 246 -267 q 164 -256 193 -261 l 164 -176 q 208 -181 188 -181 q 258 -172 238 -181 q 278 -149 278 -162 q 256 -127 278 -135 q 193 -119 233 -119 l 215 -1 z "},"đ":{"ha":506,"x_min":14,"x_max":538,"o":"m 281 0 l 281 69 l 265 69 q 214 8 244 29 q 151 -14 183 -14 q 100 0 125 -14 q 56 41 75 14 q 26 108 38 68 q 14 200 14 147 l 14 553 q 54 681 14 640 q 144 722 94 722 q 216 701 182 722 q 265 640 250 681 l 281 640 l 281 1000 l 490 1000 l 490 0 l 281 0 m 281 515 q 250 538 272 538 q 231 528 239 538 q 224 504 224 519 l 224 208 q 231 183 224 193 q 250 172 239 172 q 281 197 271 172 l 281 515 m 538 785 l 200 785 l 200 929 l 538 929 l 538 785 z "},"è":{"ha":506,"x_min":14,"x_max":490,"o":"m 224 211 q 251 167 224 167 q 281 211 281 167 l 281 269 l 490 269 l 490 224 q 425 50 490 114 q 249 -14 360 -14 q 76 49 139 -14 q 14 224 14 113 l 14 486 q 76 659 14 596 q 249 722 139 722 q 425 658 360 722 q 490 486 490 594 l 490 304 l 224 304 l 224 211 m 224 417 l 281 417 l 281 497 q 251 542 281 542 q 224 497 224 542 l 224 417 m 186 764 l 117 954 l 278 954 l 324 764 l 186 764 z "},"é":{"ha":506,"x_min":14,"x_max":490,"o":"m 224 211 q 251 167 224 167 q 281 211 281 167 l 281 269 l 490 269 l 490 224 q 425 50 490 114 q 249 -14 360 -14 q 76 49 139 -14 q 14 224 14 113 l 14 486 q 76 659 14 596 q 249 722 139 722 q 425 658 360 722 q 490 486 490 594 l 490 304 l 224 304 l 224 211 m 224 417 l 281 417 l 281 497 q 251 542 281 542 q 224 497 224 542 l 224 417 m 176 764 l 222 954 l 383 954 l 314 764 l 176 764 z "},"ê":{"ha":506,"x_min":14,"x_max":490,"o":"m 224 211 q 251 167 224 167 q 281 211 281 167 l 281 269 l 490 269 l 490 224 q 425 50 490 114 q 249 -14 360 -14 q 76 49 139 -14 q 14 224 14 113 l 14 486 q 76 659 14 596 q 249 722 139 722 q 425 658 360 722 q 490 486 490 594 l 490 304 l 224 304 l 224 211 m 224 417 l 281 417 l 281 497 q 251 542 281 542 q 224 497 224 542 l 224 417 m 115 764 l 175 954 l 326 954 l 386 764 l 271 764 l 254 840 l 246 840 l 231 764 l 115 764 z "},"ë":{"ha":506,"x_min":14,"x_max":490,"o":"m 224 211 q 251 167 224 167 q 281 211 281 167 l 281 269 l 490 269 l 490 224 q 425 50 490 114 q 249 -14 360 -14 q 76 49 139 -14 q 14 224 14 113 l 14 486 q 76 659 14 596 q 249 722 139 722 q 425 658 360 722 q 490 486 490 594 l 490 304 l 224 304 l 224 211 m 224 417 l 281 417 l 281 497 q 251 542 281 542 q 224 497 224 542 l 224 417 m 60 858 q 78 928 60 903 q 150 953 97 953 q 222 927 203 953 q 242 858 242 901 q 222 790 242 815 q 151 765 203 765 q 79 790 99 765 q 60 858 60 815 m 258 858 q 277 928 258 903 q 349 953 296 953 q 421 927 401 953 q 440 858 440 901 q 421 790 440 815 q 350 765 401 765 q 278 790 297 765 q 258 858 258 815 z "},"ì":{"ha":247,"x_min":-11,"x_max":228,"o":"m 228 708 l 228 0 l 18 0 l 18 708 l 228 708 m 58 764 l -11 954 l 150 954 l 196 764 l 58 764 z "},"í":{"ha":247,"x_min":18,"x_max":257,"o":"m 228 708 l 228 0 l 18 0 l 18 708 l 228 708 m 50 764 l 96 954 l 257 954 l 188 764 l 50 764 z "},"î":{"ha":247,"x_min":-12,"x_max":258,"o":"m 228 708 l 228 0 l 18 0 l 18 708 l 228 708 m -12 764 l 47 954 l 199 954 l 258 764 l 143 764 l 126 840 l 118 840 l 103 764 l -12 764 z "},"ï":{"ha":399,"x_min":8,"x_max":389,"o":"m 304 708 l 304 0 l 94 0 l 94 708 l 304 708 m 8 858 q 27 928 8 903 q 99 953 46 953 q 171 927 151 953 q 190 858 190 901 q 171 790 190 815 q 100 765 151 765 q 28 790 47 765 q 8 858 8 815 m 207 858 q 226 928 207 903 q 297 953 244 953 q 369 927 350 953 q 389 858 389 901 q 369 790 389 815 q 299 765 350 765 q 226 790 246 765 q 207 858 207 815 z "},"ł":{"ha":242,"x_min":-72,"x_max":308,"o":"m 17 1000 l 226 1000 l 226 0 l 17 0 l 17 1000 m 308 490 l -28 376 l -72 514 l 264 626 l 308 490 z "},"ñ":{"ha":506,"x_min":15,"x_max":492,"o":"m 15 708 l 226 708 l 226 638 l 240 638 q 360 722 282 722 q 453 678 414 722 q 492 535 492 633 l 492 0 l 282 0 l 282 504 q 257 539 282 539 q 226 514 238 539 l 226 0 l 15 0 l 15 708 m 389 939 q 372 806 389 847 q 319 764 354 764 q 283 773 301 764 q 249 796 265 782 l 243 800 q 217 817 229 811 q 196 824 206 824 q 172 779 172 824 l 172 769 l 121 769 l 121 781 q 139 909 121 864 q 193 954 157 954 q 226 946 208 954 q 260 925 243 938 l 265 921 q 292 903 281 910 q 315 897 304 897 q 340 939 340 897 l 340 950 l 389 950 l 389 939 z "},"ò":{"ha":506,"x_min":14,"x_max":490,"o":"m 14 485 q 74 656 14 589 q 250 722 133 722 q 353 704 308 722 q 428 655 399 686 q 474 580 458 624 q 490 485 490 536 l 490 222 q 474 128 490 171 q 428 53 458 85 q 353 4 399 22 q 250 -14 308 -14 q 147 3 192 -14 q 74 52 103 21 q 29 127 44 83 q 14 222 14 171 l 14 485 m 224 211 q 253 167 224 167 q 281 211 281 167 l 281 497 q 253 542 281 542 q 224 497 224 542 l 224 211 m 186 764 l 117 954 l 278 954 l 324 764 l 186 764 z "},"ó":{"ha":506,"x_min":14,"x_max":490,"o":"m 14 485 q 74 656 14 589 q 250 722 133 722 q 353 704 308 722 q 428 655 399 686 q 474 580 458 624 q 490 485 490 536 l 490 222 q 474 128 490 171 q 428 53 458 85 q 353 4 399 22 q 250 -14 308 -14 q 147 3 192 -14 q 74 52 103 21 q 29 127 44 83 q 14 222 14 171 l 14 485 m 224 211 q 253 167 224 167 q 281 211 281 167 l 281 497 q 253 542 281 542 q 224 497 224 542 l 224 211 m 178 764 l 224 954 l 385 954 l 315 764 l 178 764 z "},"ô":{"ha":506,"x_min":14,"x_max":490,"o":"m 14 485 q 74 656 14 589 q 250 722 133 722 q 353 704 308 722 q 428 655 399 686 q 474 580 458 624 q 490 485 490 536 l 490 222 q 474 128 490 171 q 428 53 458 85 q 353 4 399 22 q 250 -14 308 -14 q 147 3 192 -14 q 74 52 103 21 q 29 127 44 83 q 14 222 14 171 l 14 485 m 224 211 q 253 167 224 167 q 281 211 281 167 l 281 497 q 253 542 281 542 q 224 497 224 542 l 224 211 m 115 764 l 175 954 l 326 954 l 386 764 l 271 764 l 254 840 l 246 840 l 231 764 l 115 764 z "},"õ":{"ha":506,"x_min":14,"x_max":490,"o":"m 14 485 q 74 656 14 589 q 250 722 133 722 q 353 704 308 722 q 428 655 399 686 q 474 580 458 624 q 490 485 490 536 l 490 222 q 474 128 490 171 q 428 53 458 85 q 353 4 399 22 q 250 -14 308 -14 q 147 3 192 -14 q 74 52 103 21 q 29 127 44 83 q 14 222 14 171 l 14 485 m 224 211 q 253 167 224 167 q 281 211 281 167 l 281 497 q 253 542 281 542 q 224 497 224 542 l 224 211 m 385 939 q 367 806 385 847 q 315 764 350 764 q 279 773 297 764 q 244 796 261 782 l 239 800 q 213 817 225 811 q 192 824 201 824 q 168 779 168 824 l 168 769 l 117 769 l 117 781 q 135 909 117 864 q 189 954 153 954 q 222 946 204 954 q 256 925 239 938 l 261 921 q 288 903 276 910 q 311 897 300 897 q 336 939 336 897 l 336 950 l 385 950 l 385 939 z "},"ö":{"ha":506,"x_min":14,"x_max":490,"o":"m 14 485 q 74 656 14 589 q 250 722 133 722 q 353 704 308 722 q 428 655 399 686 q 474 580 458 624 q 490 485 490 536 l 490 222 q 474 128 490 171 q 428 53 458 85 q 353 4 399 22 q 250 -14 308 -14 q 147 3 192 -14 q 74 52 103 21 q 29 127 44 83 q 14 222 14 171 l 14 485 m 224 211 q 253 167 224 167 q 281 211 281 167 l 281 497 q 253 542 281 542 q 224 497 224 542 l 224 211 m 60 858 q 78 928 60 903 q 150 953 97 953 q 222 927 203 953 q 242 858 242 901 q 222 790 242 815 q 151 765 203 765 q 79 790 99 765 q 60 858 60 815 m 258 858 q 277 928 258 903 q 349 953 296 953 q 421 927 401 953 q 440 858 440 901 q 421 790 440 815 q 350 765 401 765 q 278 790 297 765 q 258 858 258 815 z "},"ø":{"ha":506,"x_min":14,"x_max":490,"o":"m 14 485 q 74 656 14 589 q 250 722 133 722 q 344 708 303 722 q 415 668 385 693 l 449 722 l 490 699 l 449 631 q 490 485 490 572 l 490 222 q 474 128 490 171 q 428 53 458 85 q 353 4 399 22 q 250 -14 308 -14 q 158 0 197 -14 q 89 39 118 14 l 57 -14 l 15 10 l 56 75 q 14 222 14 136 l 14 485 m 224 353 l 281 446 l 281 497 q 253 542 281 542 q 224 497 224 542 l 224 353 m 224 211 q 253 167 224 167 q 281 211 281 167 l 281 354 l 224 261 l 224 211 z "},"œ":{"ha":772,"x_min":14,"x_max":757,"o":"m 14 486 q 29 581 14 538 q 74 656 44 625 q 147 705 103 688 q 250 722 192 722 q 321 712 290 722 q 376 682 351 701 l 390 682 q 446 712 415 701 q 517 722 476 722 q 692 658 628 722 q 757 486 757 594 l 757 304 l 490 304 l 490 211 q 519 167 490 167 q 547 211 547 167 l 547 269 l 757 269 l 757 224 q 692 50 757 114 q 517 -14 628 -14 q 447 -3 476 -14 q 392 26 417 7 l 376 26 q 322 -3 353 7 q 250 -14 290 -14 q 74 53 133 -14 q 14 224 14 119 l 14 486 m 224 211 q 253 167 224 167 q 281 211 281 167 l 281 497 q 253 542 281 542 q 224 497 224 542 l 224 211 m 490 417 l 547 417 l 547 497 q 519 542 547 542 q 490 497 490 542 l 490 417 z "},"Þ":{"ha":536,"x_min":17,"x_max":521,"o":"m 239 972 l 239 822 l 265 822 q 454 740 388 822 q 521 479 521 657 l 521 476 q 505 322 521 385 q 457 222 489 260 q 376 167 425 183 q 263 150 328 150 l 239 150 l 239 0 l 17 0 l 17 972 l 239 972 m 239 343 l 263 343 q 292 354 285 343 q 300 394 300 365 l 300 576 q 292 619 300 607 q 263 631 285 631 l 239 631 l 239 343 z "},"š":{"ha":506,"x_min":14,"x_max":490,"o":"m 279 463 l 279 497 q 250 540 279 540 q 224 500 224 540 l 224 499 q 233 462 224 474 q 275 439 243 450 l 369 394 q 461 327 432 367 q 490 217 490 288 l 490 196 q 474 117 490 154 q 427 50 458 79 q 351 3 396 21 q 247 -14 306 -14 q 147 3 190 -14 q 74 51 103 21 q 29 124 44 82 q 14 214 14 165 l 14 246 l 224 246 l 224 214 q 250 171 224 171 q 281 210 281 171 l 281 213 q 270 249 281 238 q 225 275 260 261 l 129 317 q 41 383 67 343 q 15 493 15 422 l 15 513 q 31 592 15 554 q 76 660 46 631 q 149 706 106 689 q 250 722 193 722 q 353 705 308 722 q 428 657 397 688 q 474 585 458 626 q 490 496 490 543 l 490 463 l 279 463 m 386 956 l 326 765 l 175 765 l 115 956 l 231 956 l 247 879 l 254 879 l 271 956 l 386 956 z "},"ù":{"ha":506,"x_min":14,"x_max":490,"o":"m 490 0 l 281 0 l 281 71 l 265 71 q 146 -14 224 -14 q 53 31 92 -14 q 14 174 14 75 l 14 708 l 224 708 l 224 199 q 249 164 224 164 q 281 190 268 164 l 281 708 l 490 708 l 490 0 m 186 764 l 117 954 l 278 954 l 324 764 l 186 764 z "},"ú":{"ha":506,"x_min":14,"x_max":490,"o":"m 490 0 l 281 0 l 281 71 l 265 71 q 146 -14 224 -14 q 53 31 92 -14 q 14 174 14 75 l 14 708 l 224 708 l 224 199 q 249 164 224 164 q 281 190 268 164 l 281 708 l 490 708 l 490 0 m 178 764 l 224 954 l 385 954 l 315 764 l 178 764 z "},"û":{"ha":506,"x_min":14,"x_max":490,"o":"m 490 0 l 281 0 l 281 71 l 265 71 q 146 -14 224 -14 q 53 31 92 -14 q 14 174 14 75 l 14 708 l 224 708 l 224 199 q 249 164 224 164 q 281 190 268 164 l 281 708 l 490 708 l 490 0 m 115 764 l 175 954 l 326 954 l 386 764 l 271 764 l 254 840 l 246 840 l 231 764 l 115 764 z "},"ü":{"ha":506,"x_min":14,"x_max":490,"o":"m 490 0 l 281 0 l 281 71 l 265 71 q 146 -14 224 -14 q 53 31 92 -14 q 14 174 14 75 l 14 708 l 224 708 l 224 199 q 249 164 224 164 q 281 190 268 164 l 281 708 l 490 708 l 490 0 m 60 858 q 78 928 60 903 q 150 953 97 953 q 222 927 203 953 q 242 858 242 901 q 222 790 242 815 q 151 765 203 765 q 79 790 99 765 q 60 858 60 815 m 258 858 q 277 928 258 903 q 349 953 296 953 q 421 927 401 953 q 440 858 440 901 q 421 790 440 815 q 350 765 401 765 q 278 790 297 765 q 258 858 258 815 z "},"ý":{"ha":506,"x_min":15,"x_max":492,"o":"m 492 -79 q 430 -236 492 -181 q 256 -292 368 -292 q 80 -235 143 -292 q 17 -79 17 -179 l 17 -40 l 226 -40 l 226 -68 q 254 -111 226 -111 q 282 -65 282 -111 l 282 71 l 267 71 q 147 -14 225 -14 q 54 31 93 -14 q 15 174 15 75 l 15 708 l 225 708 l 225 199 q 250 164 225 164 q 282 190 269 164 l 282 708 l 492 708 l 492 -79 m 178 764 l 224 954 l 385 954 l 315 764 l 178 764 z "},"ÿ":{"ha":506,"x_min":15,"x_max":492,"o":"m 492 -79 q 430 -236 492 -181 q 256 -292 368 -292 q 80 -235 143 -292 q 17 -79 17 -179 l 17 -40 l 226 -40 l 226 -68 q 254 -111 226 -111 q 282 -65 282 -111 l 282 71 l 267 71 q 147 -14 225 -14 q 54 31 93 -14 q 15 174 15 75 l 15 708 l 225 708 l 225 199 q 250 164 225 164 q 282 190 269 164 l 282 708 l 492 708 l 492 -79 m 60 858 q 78 928 60 903 q 150 953 97 953 q 222 927 203 953 q 242 858 242 901 q 222 790 242 815 q 151 765 203 765 q 79 790 99 765 q 60 858 60 815 m 258 858 q 277 928 258 903 q 349 953 296 953 q 421 927 401 953 q 440 858 440 901 q 421 790 440 815 q 350 765 401 765 q 278 790 297 765 q 258 858 258 815 z "},"ž":{"ha":438,"x_min":13,"x_max":425,"o":"m 13 0 l 13 179 l 183 514 l 178 528 l 21 528 l 21 708 l 414 708 l 414 529 l 243 193 l 251 181 l 425 181 l 425 0 l 13 0 m 360 954 l 300 764 l 149 764 l 89 954 l 204 954 l 221 878 l 228 878 l 244 954 l 360 954 z "},"þ":{"ha":506,"x_min":15,"x_max":492,"o":"m 15 1000 l 225 1000 l 225 640 l 240 639 q 363 722 281 722 q 456 678 421 722 q 492 547 492 635 l 492 182 q 456 39 492 92 q 357 -14 419 -14 q 290 7 321 -14 q 240 69 258 28 l 225 69 l 225 -292 l 15 -292 l 15 1000 m 225 196 q 256 171 235 171 q 274 181 267 171 q 282 207 282 192 l 282 504 q 275 528 282 519 q 257 538 268 538 q 225 513 235 538 l 225 196 z "},"Ā":{"ha":528,"x_min":6,"x_max":522,"o":"m 439 974 l 522 0 l 300 0 l 289 221 l 239 221 l 228 0 l 6 0 l 93 974 l 439 974 m 279 414 l 271 589 l 257 589 l 247 414 l 279 414 m 414 1043 l 114 1043 l 114 1204 l 414 1204 l 414 1043 z "},"ā":{"ha":506,"x_min":14,"x_max":490,"o":"m 281 497 q 253 542 281 542 q 225 497 225 542 l 225 408 l 15 408 l 15 485 q 78 659 15 596 q 250 722 140 722 q 426 658 361 722 q 490 485 490 594 l 490 0 l 281 0 l 281 60 l 275 60 q 146 -14 222 -14 q 51 26 88 -14 q 14 132 14 67 l 14 235 q 58 341 14 300 q 172 382 103 382 l 281 382 l 281 497 m 281 279 l 260 279 q 224 249 224 279 l 224 181 q 249 149 224 149 q 281 174 269 149 l 281 279 m 401 779 l 101 779 l 101 940 l 401 940 l 401 779 z "},"Ă":{"ha":528,"x_min":6,"x_max":522,"o":"m 439 974 l 522 0 l 300 0 l 289 221 l 239 221 l 228 0 l 6 0 l 93 974 l 439 974 m 279 414 l 271 589 l 257 589 l 247 414 l 279 414 m 222 1218 q 231 1170 222 1188 q 264 1153 240 1153 q 295 1170 286 1153 q 304 1218 304 1188 l 429 1218 q 388 1072 429 1117 q 264 1028 347 1028 q 139 1072 181 1028 q 97 1218 97 1117 l 222 1218 z "},"ă":{"ha":506,"x_min":14,"x_max":490,"o":"m 281 497 q 253 542 281 542 q 225 497 225 542 l 225 408 l 15 408 l 15 485 q 78 659 15 596 q 250 722 140 722 q 426 658 361 722 q 490 485 490 594 l 490 0 l 281 0 l 281 60 l 275 60 q 146 -14 222 -14 q 51 26 88 -14 q 14 132 14 67 l 14 235 q 58 341 14 300 q 172 382 103 382 l 281 382 l 281 497 m 281 279 l 260 279 q 224 249 224 279 l 224 181 q 249 149 224 149 q 281 174 269 149 l 281 279 m 210 954 q 219 906 210 924 q 251 889 228 889 q 283 906 274 889 q 292 954 292 924 l 417 954 q 376 808 417 853 q 251 764 335 764 q 126 808 168 764 q 85 954 85 853 l 210 954 z "},"Ą":{"ha":528,"x_min":6,"x_max":522,"o":"m 439 974 l 522 0 l 300 0 l 289 221 l 239 221 l 228 0 l 6 0 l 93 974 l 439 974 m 279 414 l 271 589 l 257 589 l 247 414 l 279 414 m 518 10 l 518 -1 q 460 -26 482 -1 q 439 -79 439 -51 q 452 -117 439 -101 q 493 -132 465 -132 q 521 -128 507 -132 l 521 -235 q 442 -246 474 -246 q 335 -213 371 -246 q 299 -136 299 -181 q 313 -84 299 -110 q 353 -37 326 -58 q 422 -3 381 -17 q 518 10 464 10 z "},"ą":{"ha":506,"x_min":14,"x_max":490,"o":"m 281 497 q 253 542 281 542 q 225 497 225 542 l 225 408 l 15 408 l 15 485 q 78 659 15 596 q 250 722 140 722 q 426 658 361 722 q 490 485 490 594 l 490 0 l 281 0 l 281 60 l 275 60 q 146 -14 222 -14 q 51 26 88 -14 q 14 132 14 67 l 14 235 q 58 341 14 300 q 172 382 103 382 l 281 382 l 281 497 m 281 279 l 260 279 q 224 249 224 279 l 224 181 q 249 149 224 149 q 281 174 269 149 l 281 279 m 486 10 l 486 -1 q 428 -26 450 -1 q 407 -79 407 -51 q 420 -117 407 -101 q 461 -132 433 -132 q 489 -128 475 -132 l 489 -235 q 410 -246 442 -246 q 303 -213 339 -246 q 267 -136 267 -181 q 281 -84 267 -110 q 322 -37 294 -58 q 390 -3 349 -17 q 486 10 432 10 z "},"Ć":{"ha":540,"x_min":15,"x_max":525,"o":"m 238 225 q 247 190 238 200 q 271 179 257 179 q 293 190 283 179 q 303 225 303 200 l 303 460 l 525 460 l 525 242 q 456 51 525 115 q 267 -14 388 -14 q 81 50 147 -14 q 15 242 15 114 l 15 731 q 81 922 15 858 q 267 985 147 985 q 456 920 388 985 q 525 731 525 856 l 525 511 l 303 511 l 303 746 q 293 783 303 772 q 271 793 283 793 q 247 783 257 793 q 238 746 238 772 l 238 225 m 196 1028 l 242 1218 l 403 1218 l 333 1028 l 196 1028 z "},"ć":{"ha":506,"x_min":14,"x_max":490,"o":"m 224 211 q 251 167 224 167 q 281 211 281 167 l 281 332 l 490 332 l 490 222 q 426 50 490 114 q 250 -14 361 -14 q 76 49 139 -14 q 14 222 14 113 l 14 485 q 76 659 14 596 q 250 722 139 722 q 426 658 361 722 q 490 485 490 594 l 490 376 l 281 376 l 281 497 q 251 542 281 542 q 224 497 224 542 l 224 211 m 178 764 l 224 954 l 385 954 l 315 764 l 178 764 z "},"Ĉ":{"ha":540,"x_min":15,"x_max":525,"o":"m 238 225 q 247 190 238 200 q 271 179 257 179 q 293 190 283 179 q 303 225 303 200 l 303 460 l 525 460 l 525 242 q 456 51 525 115 q 267 -14 388 -14 q 81 50 147 -14 q 15 242 15 114 l 15 731 q 81 922 15 858 q 267 985 147 985 q 456 920 388 985 q 525 731 525 856 l 525 511 l 303 511 l 303 746 q 293 783 303 772 q 271 793 283 793 q 247 783 257 793 q 238 746 238 772 l 238 225 m 135 1028 l 194 1218 l 346 1218 l 406 1028 l 290 1028 l 274 1104 l 265 1104 l 250 1028 l 135 1028 z "},"ĉ":{"ha":506,"x_min":14,"x_max":490,"o":"m 224 211 q 251 167 224 167 q 281 211 281 167 l 281 332 l 490 332 l 490 222 q 426 50 490 114 q 250 -14 361 -14 q 76 49 139 -14 q 14 222 14 113 l 14 485 q 76 659 14 596 q 250 722 139 722 q 426 658 361 722 q 490 485 490 594 l 490 376 l 281 376 l 281 497 q 251 542 281 542 q 224 497 224 542 l 224 211 m 115 764 l 175 954 l 326 954 l 386 764 l 271 764 l 254 840 l 246 840 l 231 764 l 115 764 z "},"Ċ":{"ha":540,"x_min":15,"x_max":525,"o":"m 238 225 q 247 190 238 200 q 271 179 257 179 q 293 190 283 179 q 303 225 303 200 l 303 460 l 525 460 l 525 242 q 456 51 525 115 q 267 -14 388 -14 q 81 50 147 -14 q 15 242 15 114 l 15 731 q 81 922 15 858 q 267 985 147 985 q 456 920 388 985 q 525 731 525 856 l 525 511 l 303 511 l 303 746 q 293 783 303 772 q 271 793 283 793 q 247 783 257 793 q 238 746 238 772 l 238 225 m 179 1124 q 198 1192 179 1167 q 269 1217 217 1217 q 341 1191 321 1217 q 361 1122 361 1165 q 342 1054 361 1079 q 271 1029 322 1029 q 199 1054 218 1029 q 179 1124 179 1079 z "},"ċ":{"ha":506,"x_min":14,"x_max":490,"o":"m 224 211 q 251 167 224 167 q 281 211 281 167 l 281 332 l 490 332 l 490 222 q 426 50 490 114 q 250 -14 361 -14 q 76 49 139 -14 q 14 222 14 113 l 14 485 q 76 659 14 596 q 250 722 139 722 q 426 658 361 722 q 490 485 490 594 l 490 376 l 281 376 l 281 497 q 251 542 281 542 q 224 497 224 542 l 224 211 m 160 860 q 178 928 160 903 q 250 953 197 953 q 322 927 301 953 q 342 858 342 901 q 322 790 342 815 q 251 765 303 765 q 179 790 199 765 q 160 860 160 815 z "},"Č":{"ha":540,"x_min":15,"x_max":525,"o":"m 238 225 q 247 190 238 200 q 271 179 257 179 q 293 190 283 179 q 303 225 303 200 l 303 460 l 525 460 l 525 242 q 456 51 525 115 q 267 -14 388 -14 q 81 50 147 -14 q 15 242 15 114 l 15 731 q 81 922 15 858 q 267 985 147 985 q 456 920 388 985 q 525 731 525 856 l 525 511 l 303 511 l 303 746 q 293 783 303 772 q 271 793 283 793 q 247 783 257 793 q 238 746 238 772 l 238 225 m 406 1219 l 346 1029 l 194 1029 l 135 1219 l 250 1219 l 267 1143 l 274 1143 l 290 1219 l 406 1219 z "},"č":{"ha":506,"x_min":14,"x_max":490,"o":"m 224 211 q 251 167 224 167 q 281 211 281 167 l 281 332 l 490 332 l 490 222 q 426 50 490 114 q 250 -14 361 -14 q 76 49 139 -14 q 14 222 14 113 l 14 485 q 76 659 14 596 q 250 722 139 722 q 426 658 361 722 q 490 485 490 594 l 490 376 l 281 376 l 281 497 q 251 542 281 542 q 224 497 224 542 l 224 211 m 386 956 l 326 765 l 175 765 l 115 956 l 231 956 l 247 879 l 254 879 l 271 956 l 386 956 z "},"Ď":{"ha":539,"x_min":17,"x_max":524,"o":"m 267 972 q 455 913 386 972 q 524 729 524 854 l 524 243 q 455 59 524 118 q 267 0 386 0 l 17 0 l 17 972 l 267 972 m 240 193 l 265 193 q 292 202 283 193 q 301 239 301 211 l 301 733 q 292 770 301 761 q 265 779 283 779 l 240 779 l 240 193 m 392 1219 l 332 1029 l 181 1029 l 121 1219 l 236 1219 l 253 1143 l 260 1143 l 276 1219 l 392 1219 z "},"ď":{"ha":506,"x_min":14,"x_max":689,"o":"m 281 0 l 281 69 l 265 69 q 214 8 244 29 q 151 -14 183 -14 q 100 0 125 -14 q 56 41 75 14 q 26 108 38 68 q 14 200 14 147 l 14 553 q 54 681 14 640 q 144 722 94 722 q 216 701 182 722 q 265 640 250 681 l 281 640 l 281 1000 l 490 1000 l 490 0 l 281 0 m 281 515 q 250 538 272 538 q 231 528 239 538 q 224 504 224 519 l 224 208 q 231 183 224 193 q 250 172 239 172 q 281 197 271 172 l 281 515 m 544 1000 l 689 1000 l 596 658 l 511 658 l 544 1000 z "},"Ē":{"ha":388,"x_min":17,"x_max":376,"o":"m 239 779 l 239 607 l 372 607 l 372 414 l 239 414 l 239 193 l 376 193 l 376 0 l 17 0 l 17 972 l 375 972 l 375 779 l 239 779 m 346 1043 l 46 1043 l 46 1204 l 346 1204 l 346 1043 z "},"ē":{"ha":506,"x_min":14,"x_max":490,"o":"m 224 211 q 251 167 224 167 q 281 211 281 167 l 281 269 l 490 269 l 490 224 q 425 50 490 114 q 249 -14 360 -14 q 76 49 139 -14 q 14 224 14 113 l 14 486 q 76 659 14 596 q 249 722 139 722 q 425 658 360 722 q 490 486 490 594 l 490 304 l 224 304 l 224 211 m 224 417 l 281 417 l 281 497 q 251 542 281 542 q 224 497 224 542 l 224 417 m 400 779 l 100 779 l 100 940 l 400 940 l 400 779 z "},"Ĕ":{"ha":388,"x_min":17,"x_max":376,"o":"m 239 779 l 239 607 l 372 607 l 372 414 l 239 414 l 239 193 l 376 193 l 376 0 l 17 0 l 17 972 l 375 972 l 375 779 l 239 779 m 154 1218 q 163 1170 154 1188 q 196 1153 172 1153 q 227 1170 218 1153 q 236 1218 236 1188 l 361 1218 q 320 1072 361 1117 q 196 1028 279 1028 q 71 1072 113 1028 q 29 1218 29 1117 l 154 1218 z "},"ĕ":{"ha":506,"x_min":14,"x_max":490,"o":"m 224 211 q 251 167 224 167 q 281 211 281 167 l 281 269 l 490 269 l 490 224 q 425 50 490 114 q 249 -14 360 -14 q 76 49 139 -14 q 14 224 14 113 l 14 486 q 76 659 14 596 q 249 722 139 722 q 425 658 360 722 q 490 486 490 594 l 490 304 l 224 304 l 224 211 m 224 417 l 281 417 l 281 497 q 251 542 281 542 q 224 497 224 542 l 224 417 m 210 954 q 219 906 210 924 q 251 889 228 889 q 283 906 274 889 q 292 954 292 924 l 417 954 q 376 808 417 853 q 251 764 335 764 q 126 808 168 764 q 85 954 85 853 l 210 954 z "},"Ė":{"ha":388,"x_min":17,"x_max":376,"o":"m 239 779 l 239 607 l 372 607 l 372 414 l 239 414 l 239 193 l 376 193 l 376 0 l 17 0 l 17 972 l 375 972 l 375 779 l 239 779 m 104 1124 q 123 1192 104 1167 q 194 1217 142 1217 q 266 1191 246 1217 q 286 1122 286 1165 q 267 1054 286 1079 q 196 1029 247 1029 q 124 1054 143 1029 q 104 1124 104 1079 z "},"ė":{"ha":506,"x_min":14,"x_max":490,"o":"m 224 211 q 251 167 224 167 q 281 211 281 167 l 281 269 l 490 269 l 490 224 q 425 50 490 114 q 249 -14 360 -14 q 76 49 139 -14 q 14 224 14 113 l 14 486 q 76 659 14 596 q 249 722 139 722 q 425 658 360 722 q 490 486 490 594 l 490 304 l 224 304 l 224 211 m 224 417 l 281 417 l 281 497 q 251 542 281 542 q 224 497 224 542 l 224 417 m 160 860 q 178 928 160 903 q 250 953 197 953 q 322 927 301 953 q 342 858 342 901 q 322 790 342 815 q 251 765 303 765 q 179 790 199 765 q 160 860 160 815 z "},"Ę":{"ha":388,"x_min":17,"x_max":376,"o":"m 239 779 l 239 607 l 372 607 l 372 414 l 239 414 l 239 193 l 376 193 l 376 0 l 17 0 l 17 972 l 375 972 l 375 779 l 239 779 m 372 10 l 372 -1 q 315 -26 336 -1 q 293 -79 293 -51 q 306 -117 293 -101 q 347 -132 319 -132 q 375 -128 361 -132 l 375 -235 q 296 -246 328 -246 q 189 -213 225 -246 q 153 -136 153 -181 q 167 -84 153 -110 q 208 -37 181 -58 q 276 -3 235 -17 q 372 10 318 10 z "},"ę":{"ha":506,"x_min":14,"x_max":490,"o":"m 224 211 q 251 167 224 167 q 281 211 281 167 l 281 269 l 490 269 l 490 224 q 425 50 490 114 q 249 -14 360 -14 q 76 49 139 -14 q 14 224 14 113 l 14 486 q 76 659 14 596 q 249 722 139 722 q 425 658 360 722 q 490 486 490 594 l 490 304 l 224 304 l 224 211 m 224 417 l 281 417 l 281 497 q 251 542 281 542 q 224 497 224 542 l 224 417 m 336 10 l 336 -1 q 282 -27 301 -3 q 263 -78 263 -51 q 276 -115 263 -100 q 317 -131 289 -131 q 331 -131 324 -131 q 344 -128 338 -131 l 344 -235 q 265 -246 297 -246 q 158 -213 194 -246 q 122 -136 122 -181 q 135 -84 122 -110 q 176 -38 149 -58 q 242 -5 203 -18 q 336 10 282 8 z "},"Ě":{"ha":388,"x_min":17,"x_max":376,"o":"m 239 779 l 239 607 l 372 607 l 372 414 l 239 414 l 239 193 l 376 193 l 376 0 l 17 0 l 17 972 l 375 972 l 375 779 l 239 779 m 331 1219 l 271 1029 l 119 1029 l 60 1219 l 175 1219 l 192 1143 l 199 1143 l 215 1219 l 331 1219 z "},"ě":{"ha":506,"x_min":14,"x_max":490,"o":"m 224 211 q 251 167 224 167 q 281 211 281 167 l 281 269 l 490 269 l 490 224 q 425 50 490 114 q 249 -14 360 -14 q 76 49 139 -14 q 14 224 14 113 l 14 486 q 76 659 14 596 q 249 722 139 722 q 425 658 360 722 q 490 486 490 594 l 490 304 l 224 304 l 224 211 m 224 417 l 281 417 l 281 497 q 251 542 281 542 q 224 497 224 542 l 224 417 m 386 956 l 326 765 l 175 765 l 115 956 l 231 956 l 247 879 l 254 879 l 271 956 l 386 956 z "},"Ĝ":{"ha":540,"x_min":15,"x_max":525,"o":"m 238 226 q 247 191 238 203 q 268 179 256 179 q 292 193 282 179 q 303 236 303 207 l 303 393 l 263 393 l 263 538 l 525 538 l 525 0 l 374 0 l 374 88 l 358 88 q 302 13 344 39 q 211 -14 260 -14 q 142 1 176 -14 q 78 47 107 15 q 33 126 50 78 q 15 243 15 175 l 15 732 q 81 923 15 860 q 267 986 147 986 q 456 922 388 986 q 525 732 525 857 l 525 575 l 303 575 l 303 747 q 293 784 303 774 q 271 794 283 794 q 247 784 257 794 q 238 747 238 774 l 238 226 m 135 1028 l 194 1218 l 346 1218 l 406 1028 l 290 1028 l 274 1104 l 265 1104 l 250 1028 l 135 1028 z "},"ĝ":{"ha":506,"x_min":14,"x_max":490,"o":"m 490 -79 q 428 -236 490 -181 q 254 -292 367 -292 q 78 -235 142 -292 q 15 -79 15 -179 l 15 -40 l 225 -40 l 225 -68 q 253 -111 225 -111 q 281 -65 281 -111 l 281 71 l 265 71 q 215 8 246 29 q 149 -14 185 -14 q 50 39 86 -14 q 14 182 14 92 l 14 535 q 49 672 14 622 q 146 722 83 722 q 215 701 183 722 q 265 638 246 681 l 281 638 l 281 708 l 490 708 l 490 -79 m 281 508 q 267 529 275 521 q 249 538 258 538 q 231 527 238 538 q 224 501 224 517 l 224 211 q 231 182 224 193 q 249 171 238 171 q 281 200 269 171 l 281 508 m 93 764 l 153 954 l 304 954 l 364 764 l 249 764 l 232 840 l 224 840 l 208 764 l 93 764 z "},"Ğ":{"ha":540,"x_min":15,"x_max":525,"o":"m 238 226 q 247 191 238 203 q 268 179 256 179 q 292 193 282 179 q 303 236 303 207 l 303 393 l 263 393 l 263 538 l 525 538 l 525 0 l 374 0 l 374 88 l 358 88 q 302 13 344 39 q 211 -14 260 -14 q 142 1 176 -14 q 78 47 107 15 q 33 126 50 78 q 15 243 15 175 l 15 732 q 81 923 15 860 q 267 986 147 986 q 456 922 388 986 q 525 732 525 857 l 525 575 l 303 575 l 303 747 q 293 784 303 774 q 271 794 283 794 q 247 784 257 794 q 238 747 238 774 l 238 226 m 229 1218 q 238 1170 229 1188 q 271 1153 247 1153 q 302 1170 293 1153 q 311 1218 311 1188 l 436 1218 q 395 1072 436 1117 q 271 1028 354 1028 q 146 1072 188 1028 q 104 1218 104 1117 l 229 1218 z "},"ğ":{"ha":506,"x_min":14,"x_max":490,"o":"m 490 -79 q 428 -236 490 -181 q 254 -292 367 -292 q 78 -235 142 -292 q 15 -79 15 -179 l 15 -40 l 225 -40 l 225 -68 q 253 -111 225 -111 q 281 -65 281 -111 l 281 71 l 265 71 q 215 8 246 29 q 149 -14 185 -14 q 50 39 86 -14 q 14 182 14 92 l 14 535 q 49 672 14 622 q 146 722 83 722 q 215 701 183 722 q 265 638 246 681 l 281 638 l 281 708 l 490 708 l 490 -79 m 281 508 q 267 529 275 521 q 249 538 258 538 q 231 527 238 538 q 224 501 224 517 l 224 211 q 231 182 224 193 q 249 171 238 171 q 281 200 269 171 l 281 508 m 188 954 q 197 906 188 924 q 229 889 206 889 q 260 906 251 889 q 269 954 269 924 l 394 954 q 353 808 394 853 q 229 764 313 764 q 104 808 146 764 q 63 954 63 853 l 188 954 z "},"Ġ":{"ha":540,"x_min":15,"x_max":525,"o":"m 238 226 q 247 191 238 203 q 268 179 256 179 q 292 193 282 179 q 303 236 303 207 l 303 393 l 263 393 l 263 538 l 525 538 l 525 0 l 374 0 l 374 88 l 358 88 q 302 13 344 39 q 211 -14 260 -14 q 142 1 176 -14 q 78 47 107 15 q 33 126 50 78 q 15 243 15 175 l 15 732 q 81 923 15 860 q 267 986 147 986 q 456 922 388 986 q 525 732 525 857 l 525 575 l 303 575 l 303 747 q 293 784 303 774 q 271 794 283 794 q 247 784 257 794 q 238 747 238 774 l 238 226 m 179 1124 q 198 1192 179 1167 q 269 1217 217 1217 q 341 1191 321 1217 q 361 1122 361 1165 q 342 1054 361 1079 q 271 1029 322 1029 q 199 1054 218 1029 q 179 1124 179 1079 z "},"ġ":{"ha":506,"x_min":14,"x_max":490,"o":"m 490 -79 q 428 -236 490 -181 q 254 -292 367 -292 q 78 -235 142 -292 q 15 -79 15 -179 l 15 -40 l 225 -40 l 225 -68 q 253 -111 225 -111 q 281 -65 281 -111 l 281 71 l 265 71 q 215 8 246 29 q 149 -14 185 -14 q 50 39 86 -14 q 14 182 14 92 l 14 535 q 49 672 14 622 q 146 722 83 722 q 215 701 183 722 q 265 638 246 681 l 281 638 l 281 708 l 490 708 l 490 -79 m 281 508 q 267 529 275 521 q 249 538 258 538 q 231 527 238 538 q 224 501 224 517 l 224 211 q 231 182 224 193 q 249 171 238 171 q 281 200 269 171 l 281 508 m 138 860 q 156 928 138 903 q 228 953 175 953 q 299 927 279 953 q 319 858 319 901 q 300 790 319 815 q 229 765 281 765 q 157 790 176 765 q 138 860 138 815 z "},"Ģ":{"ha":540,"x_min":15,"x_max":525,"o":"m 238 226 q 247 191 238 203 q 268 179 256 179 q 292 193 282 179 q 303 236 303 207 l 303 393 l 263 393 l 263 538 l 525 538 l 525 0 l 374 0 l 374 88 l 358 88 q 302 13 344 39 q 211 -14 260 -14 q 142 1 176 -14 q 78 47 107 15 q 33 126 50 78 q 15 243 15 175 l 15 732 q 81 923 15 860 q 267 986 147 986 q 456 922 388 986 q 525 732 525 857 l 525 575 l 303 575 l 303 747 q 293 784 303 774 q 271 794 283 794 q 247 784 257 794 q 238 747 238 774 l 238 226 m 199 -56 l 368 -56 l 285 -246 l 176 -246 l 199 -56 z "},"ģ":{"ha":506,"x_min":14,"x_max":490,"o":"m 490 -79 q 428 -236 490 -181 q 254 -292 367 -292 q 78 -235 142 -292 q 15 -79 15 -179 l 15 -40 l 225 -40 l 225 -68 q 253 -111 225 -111 q 281 -65 281 -111 l 281 71 l 265 71 q 215 8 246 29 q 149 -14 185 -14 q 50 39 86 -14 q 14 182 14 92 l 14 535 q 49 672 14 622 q 146 722 83 722 q 215 701 183 722 q 265 638 246 681 l 281 638 l 281 708 l 490 708 l 490 -79 m 281 508 q 267 529 275 521 q 249 538 258 538 q 231 527 238 538 q 224 501 224 517 l 224 211 q 231 182 224 193 q 249 171 238 171 q 281 200 269 171 l 281 508 m 342 764 l 172 764 l 257 953 l 365 953 l 342 764 z "},"Ĥ":{"ha":535,"x_min":17,"x_max":519,"o":"m 519 974 l 519 0 l 299 0 l 299 403 l 239 403 l 239 0 l 17 0 l 17 974 l 239 974 l 239 596 l 299 596 l 299 974 l 519 974 m 132 1028 l 192 1218 l 343 1218 l 403 1028 l 288 1028 l 271 1104 l 263 1104 l 247 1028 l 132 1028 z "},"ĥ":{"ha":506,"x_min":-19,"x_max":492,"o":"m 15 1000 l 225 1000 l 225 638 l 240 638 q 360 722 279 722 q 453 678 414 722 q 492 535 492 633 l 492 0 l 282 0 l 282 503 q 257 538 282 538 q 225 511 239 538 l 225 0 l 15 0 l 15 1000 m -19 1042 l 40 1232 l 192 1232 l 251 1042 l 136 1042 l 119 1118 l 111 1118 l 96 1042 l -19 1042 z "},"Ħ":{"ha":535,"x_min":-14,"x_max":550,"o":"m 519 972 l 519 813 l 550 813 l 550 688 l 519 688 l 519 0 l 299 0 l 299 403 l 239 403 l 239 0 l 17 0 l 17 688 l -14 688 l -14 813 l 17 813 l 17 972 l 239 972 l 239 813 l 299 813 l 299 972 l 519 972 m 299 596 l 299 688 l 239 688 l 239 596 l 299 596 z "},"ħ":{"ha":506,"x_min":-31,"x_max":492,"o":"m 15 1000 l 225 1000 l 225 638 l 240 638 q 360 722 279 722 q 453 678 414 722 q 492 535 492 633 l 492 0 l 282 0 l 282 503 q 257 538 282 538 q 225 511 239 538 l 225 0 l 15 0 l 15 1000 m 307 785 l -31 785 l -31 929 l 307 929 l 307 785 z "},"Ĩ":{"ha":254,"x_min":-7,"x_max":261,"o":"m 239 972 l 239 0 l 17 0 l 17 972 l 239 972 m 261 1203 q 244 1069 261 1111 q 192 1028 226 1028 q 156 1037 174 1028 q 121 1060 138 1046 l 115 1064 q 90 1081 101 1075 q 68 1088 78 1088 q 44 1043 44 1088 l 44 1033 l -7 1033 l -7 1044 q 11 1173 -7 1128 q 65 1218 29 1218 q 98 1210 81 1218 q 132 1189 115 1201 l 138 1185 q 165 1167 153 1174 q 188 1161 176 1161 q 213 1203 213 1161 l 213 1214 l 261 1214 l 261 1203 z "},"ĩ":{"ha":247,"x_min":-11,"x_max":257,"o":"m 228 708 l 228 0 l 18 0 l 18 708 l 228 708 m 257 939 q 240 806 257 847 q 188 764 222 764 q 151 773 169 764 q 117 796 133 782 l 111 800 q 85 817 97 811 q 64 824 74 824 q 40 779 40 824 l 40 769 l -11 769 l -11 781 q 7 909 -11 864 q 61 954 25 954 q 94 946 76 954 q 128 925 111 938 l 133 921 q 160 903 149 910 q 183 897 172 897 q 208 939 208 897 l 208 950 l 257 950 l 257 939 z "},"Ī":{"ha":254,"x_min":-24,"x_max":276,"o":"m 239 972 l 239 0 l 17 0 l 17 972 l 239 972 m 276 1043 l -24 1043 l -24 1204 l 276 1204 l 276 1043 z "},"ī":{"ha":247,"x_min":-28,"x_max":272,"o":"m 228 708 l 228 0 l 18 0 l 18 708 l 228 708 m 272 779 l -28 779 l -28 940 l 272 940 l 272 779 z "},"Ĭ":{"ha":254,"x_min":-39,"x_max":293,"o":"m 239 972 l 239 0 l 17 0 l 17 972 l 239 972 m 86 1218 q 95 1170 86 1188 q 128 1153 104 1153 q 159 1170 150 1153 q 168 1218 168 1188 l 293 1218 q 252 1072 293 1117 q 128 1028 211 1028 q 3 1072 44 1028 q -39 1218 -39 1117 l 86 1218 z "},"ĭ":{"ha":247,"x_min":-43,"x_max":289,"o":"m 228 708 l 228 0 l 18 0 l 18 708 l 228 708 m 82 954 q 91 906 82 924 q 124 889 100 889 q 155 906 146 889 q 164 954 164 924 l 289 954 q 248 808 289 853 q 124 764 207 764 q -1 808 40 764 q -43 954 -43 853 l 82 954 z "},"Į":{"ha":254,"x_min":14,"x_max":239,"o":"m 239 972 l 239 0 l 17 0 l 17 972 l 239 972 m 233 10 l 233 -1 q 176 -26 197 -1 q 154 -79 154 -51 q 167 -117 154 -101 q 208 -132 181 -132 q 236 -128 222 -132 l 236 -235 q 157 -246 189 -246 q 50 -213 86 -246 q 14 -136 14 -181 q 28 -84 14 -110 q 69 -37 42 -58 q 138 -3 96 -17 q 233 10 179 10 z "},"į":{"ha":247,"x_min":7,"x_max":239,"o":"m 7 864 q 38 942 7 917 q 121 967 68 967 q 206 942 174 967 q 239 864 239 917 q 207 786 239 811 q 122 761 175 761 q 38 786 69 761 q 7 864 7 811 m 229 708 l 229 0 l 18 0 l 18 708 l 229 708 m 231 -4 l 231 -15 q 173 -40 194 -15 q 151 -93 151 -65 q 165 -131 151 -115 q 206 -146 178 -146 q 233 -142 219 -146 l 233 -249 q 154 -260 186 -260 q 47 -227 83 -260 q 11 -150 11 -194 q 25 -98 11 -124 q 66 -51 39 -72 q 135 -17 93 -31 q 231 -4 176 -4 z "},"İ":{"ha":254,"x_min":17,"x_max":239,"o":"m 239 972 l 239 0 l 17 0 l 17 972 l 239 972 m 36 1124 q 55 1192 36 1167 q 126 1217 74 1217 q 198 1191 178 1217 q 218 1122 218 1165 q 199 1054 218 1079 q 128 1029 179 1029 q 56 1054 75 1029 q 36 1124 36 1079 z "},"Ĳ":{"ha":789,"x_min":17,"x_max":774,"o":"m 239 972 l 239 0 l 17 0 l 17 972 l 239 972 m 774 972 l 774 243 q 706 51 774 117 q 517 -14 639 -14 q 333 50 397 -14 q 269 243 269 114 l 269 453 l 492 453 l 492 225 q 501 190 492 200 q 522 179 510 179 q 543 190 535 179 q 551 225 551 200 l 551 972 l 774 972 z "},"ĳ":{"ha":494,"x_min":7,"x_max":486,"o":"m 7 864 q 38 942 7 917 q 121 967 68 967 q 206 942 174 967 q 239 864 239 917 q 207 786 239 811 q 122 761 175 761 q 38 786 69 761 q 7 864 7 811 m 229 708 l 229 0 l 18 0 l 18 708 l 229 708 m 254 865 q 285 943 254 918 q 368 968 315 968 q 453 943 421 968 q 486 865 486 918 q 454 788 486 813 q 369 763 422 763 q 285 788 317 763 q 254 865 254 813 m 475 -51 q 422 -233 475 -174 q 279 -292 369 -292 q 189 -279 236 -292 l 189 -99 q 201 -101 196 -100 q 213 -101 207 -101 q 251 -90 236 -101 q 265 -53 265 -79 l 265 710 l 475 710 l 475 -51 z "},"Ĵ":{"ha":529,"x_min":10,"x_max":538,"o":"m 514 972 l 514 243 q 447 51 514 117 q 257 -14 379 -14 q 74 50 138 -14 q 10 243 10 114 l 10 453 l 232 453 l 232 225 q 241 190 232 200 q 263 179 250 179 q 283 190 275 179 q 292 225 292 200 l 292 972 l 514 972 m 267 1028 l 326 1218 l 478 1218 l 538 1028 l 422 1028 l 406 1104 l 397 1104 l 382 1028 l 267 1028 z "},"ĵ":{"ha":246,"x_min":-60,"x_max":256,"o":"m 226 -51 q 174 -233 226 -174 q 31 -292 121 -292 q -60 -279 -12 -292 l -60 -99 q -47 -101 -53 -101 q -36 -101 -42 -101 q 2 -90 -12 -101 q 17 -53 17 -79 l 17 708 l 226 708 l 226 -51 m -15 764 l 44 954 l 196 954 l 256 764 l 140 764 l 124 840 l 115 840 l 100 764 l -15 764 z "},"Ķ":{"ha":540,"x_min":18,"x_max":538,"o":"m 240 582 l 258 582 l 296 972 l 531 972 l 440 486 l 538 1 l 301 1 l 258 390 l 240 390 l 240 1 l 18 1 l 18 972 l 240 972 l 240 582 m 196 -56 l 365 -56 l 282 -246 l 174 -246 l 196 -56 z "},"ķ":{"ha":488,"x_min":15,"x_max":497,"o":"m 225 472 l 240 472 l 283 708 l 489 708 l 404 372 l 497 0 l 292 0 l 240 268 l 225 268 l 225 0 l 15 0 l 15 1000 l 225 1000 l 225 472 m 182 -56 l 351 -56 l 268 -246 l 160 -246 l 182 -56 z "},"ĸ":{"ha":483,"x_min":15,"x_max":494,"o":"m 225 472 l 240 472 l 279 708 l 486 708 l 404 372 l 494 0 l 288 0 l 240 268 l 225 268 l 225 0 l 15 0 l 15 708 l 225 708 l 225 472 z "},"Ĺ":{"ha":379,"x_min":17,"x_max":375,"o":"m 239 972 l 239 193 l 375 193 l 375 0 l 17 0 l 17 972 l 239 972 m 54 1028 l 100 1218 l 261 1218 l 192 1028 l 54 1028 z "},"ĺ":{"ha":242,"x_min":17,"x_max":254,"o":"m 17 1000 l 226 1000 l 226 0 l 17 0 l 17 1000 m 47 1056 l 93 1246 l 254 1246 l 185 1056 l 47 1056 z "},"Ļ":{"ha":379,"x_min":17,"x_max":375,"o":"m 239 972 l 239 193 l 375 193 l 375 0 l 17 0 l 17 972 l 239 972 m 117 -56 l 286 -56 l 203 -246 l 94 -246 l 117 -56 z "},"ļ":{"ha":242,"x_min":17,"x_max":226,"o":"m 17 1000 l 226 1000 l 226 0 l 17 0 l 17 1000 m 39 -56 l 208 -56 l 125 -246 l 17 -246 l 39 -56 z "},"Ľ":{"ha":392,"x_min":17,"x_max":454,"o":"m 239 972 l 239 193 l 375 193 l 375 0 l 17 0 l 17 972 l 239 972 m 310 972 l 454 972 l 361 631 l 276 631 l 310 972 z "},"ľ":{"ha":242,"x_min":17,"x_max":424,"o":"m 17 1000 l 226 1000 l 226 0 l 17 0 l 17 1000 m 279 1000 l 424 1000 l 331 658 l 246 658 l 279 1000 z "},"Ŀ":{"ha":379,"x_min":17,"x_max":458,"o":"m 239 972 l 239 193 l 375 193 l 375 0 l 17 0 l 17 972 l 239 972 m 276 517 q 295 585 276 561 q 367 610 314 610 q 438 585 418 610 q 458 515 458 560 q 439 447 458 472 q 368 422 419 422 q 296 447 315 422 q 276 517 276 472 z "},"ŀ":{"ha":242,"x_min":17,"x_max":432,"o":"m 17 1000 l 226 1000 l 226 0 l 17 0 l 17 1000 m 250 493 q 269 562 250 538 q 340 586 288 586 q 412 561 392 586 q 432 492 432 536 q 413 424 432 449 q 342 399 393 399 q 269 424 289 399 q 250 493 250 449 z "},"Ń":{"ha":557,"x_min":15,"x_max":542,"o":"m 542 972 l 542 0 l 300 0 l 201 582 l 189 582 l 238 0 l 15 0 l 15 972 l 257 972 l 361 386 l 374 386 l 319 972 l 542 972 m 204 1028 l 250 1218 l 411 1218 l 342 1028 l 204 1028 z "},"ń":{"ha":506,"x_min":15,"x_max":492,"o":"m 15 708 l 226 708 l 226 638 l 240 638 q 360 722 282 722 q 453 678 414 722 q 492 535 492 633 l 492 0 l 282 0 l 282 504 q 257 539 282 539 q 226 514 238 539 l 226 0 l 15 0 l 15 708 m 182 764 l 228 954 l 389 954 l 319 764 l 182 764 z "},"Ņ":{"ha":557,"x_min":15,"x_max":542,"o":"m 542 972 l 542 0 l 300 0 l 201 582 l 189 582 l 238 0 l 15 0 l 15 972 l 257 972 l 361 386 l 374 386 l 319 972 l 542 972 m 200 -56 l 369 -56 l 286 -246 l 178 -246 l 200 -56 z "},"ņ":{"ha":506,"x_min":15,"x_max":492,"o":"m 15 708 l 226 708 l 226 638 l 240 638 q 360 722 282 722 q 453 678 414 722 q 492 535 492 633 l 492 0 l 282 0 l 282 504 q 257 539 282 539 q 226 514 238 539 l 226 0 l 15 0 l 15 708 m 183 -56 l 353 -56 l 269 -246 l 161 -246 l 183 -56 z "},"Ň":{"ha":557,"x_min":15,"x_max":542,"o":"m 542 972 l 542 0 l 300 0 l 201 582 l 189 582 l 238 0 l 15 0 l 15 972 l 257 972 l 361 386 l 374 386 l 319 972 l 542 972 m 413 1219 l 353 1029 l 201 1029 l 142 1219 l 257 1219 l 274 1143 l 281 1143 l 297 1219 l 413 1219 z "},"ň":{"ha":506,"x_min":15,"x_max":492,"o":"m 15 708 l 226 708 l 226 638 l 240 638 q 360 722 282 722 q 453 678 414 722 q 492 535 492 633 l 492 0 l 282 0 l 282 504 q 257 539 282 539 q 226 514 238 539 l 226 0 l 15 0 l 15 708 m 390 956 l 331 765 l 179 765 l 119 956 l 235 956 l 251 879 l 258 879 l 275 956 l 390 956 z "},"ŉ":{"ha":506,"x_min":-136,"x_max":492,"o":"m 15 708 l 226 708 l 226 638 l 240 638 q 360 722 282 722 q 453 678 414 722 q 492 535 492 633 l 492 0 l 282 0 l 282 504 q 257 539 282 539 q 226 514 238 539 l 226 0 l 15 0 l 15 708 m -104 972 l 65 972 l -28 631 l -136 631 l -104 972 z "},"Ŋ":{"ha":561,"x_min":18,"x_max":543,"o":"m 543 972 l 543 -53 q 491 -234 543 -175 q 349 -293 439 -293 q 257 -281 307 -293 l 258 -100 q 274 -103 269 -103 q 306 -54 306 -103 l 306 0 l 203 582 l 190 582 l 240 0 l 18 0 l 18 972 l 260 972 l 364 394 l 376 394 l 321 972 l 543 972 z "},"ŋ":{"ha":506,"x_min":15,"x_max":492,"o":"m 492 -51 q 440 -233 492 -174 q 297 -292 388 -292 q 207 -279 256 -292 l 207 -99 q 219 -101 214 -101 q 231 -101 225 -101 q 268 -90 254 -101 q 282 -53 282 -79 l 282 504 q 257 539 282 539 q 226 514 238 539 l 226 0 l 15 0 l 15 708 l 226 708 l 226 638 l 240 638 q 360 722 282 722 q 453 678 414 722 q 492 535 492 633 l 492 -51 z "},"Ō":{"ha":540,"x_min":15,"x_max":525,"o":"m 15 731 q 81 922 15 858 q 267 986 147 986 q 456 922 388 986 q 525 731 525 857 l 525 243 q 456 51 525 117 q 267 -14 388 -14 q 81 51 147 -14 q 15 243 15 115 l 15 731 m 238 225 q 247 190 238 200 q 269 179 257 179 q 293 190 283 179 q 303 225 303 200 l 303 747 q 293 783 303 774 q 269 793 283 793 q 247 783 257 793 q 238 747 238 774 l 238 225 m 419 1043 l 119 1043 l 119 1204 l 419 1204 l 419 1043 z "},"ō":{"ha":506,"x_min":14,"x_max":490,"o":"m 14 485 q 74 656 14 589 q 250 722 133 722 q 353 704 308 722 q 428 655 399 686 q 474 580 458 624 q 490 485 490 536 l 490 222 q 474 128 490 171 q 428 53 458 85 q 353 4 399 22 q 250 -14 308 -14 q 147 3 192 -14 q 74 52 103 21 q 29 127 44 83 q 14 222 14 171 l 14 485 m 224 211 q 253 167 224 167 q 281 211 281 167 l 281 497 q 253 542 281 542 q 224 497 224 542 l 224 211 m 400 779 l 100 779 l 100 940 l 400 940 l 400 779 z "},"Ŏ":{"ha":540,"x_min":15,"x_max":525,"o":"m 15 731 q 81 922 15 858 q 267 986 147 986 q 456 922 388 986 q 525 731 525 857 l 525 243 q 456 51 525 117 q 267 -14 388 -14 q 81 51 147 -14 q 15 243 15 115 l 15 731 m 238 225 q 247 190 238 200 q 269 179 257 179 q 293 190 283 179 q 303 225 303 200 l 303 747 q 293 783 303 774 q 269 793 283 793 q 247 783 257 793 q 238 747 238 774 l 238 225 m 229 1218 q 238 1170 229 1188 q 271 1153 247 1153 q 302 1170 293 1153 q 311 1218 311 1188 l 436 1218 q 395 1072 436 1117 q 271 1028 354 1028 q 146 1072 188 1028 q 104 1218 104 1117 l 229 1218 z "},"ŏ":{"ha":506,"x_min":14,"x_max":490,"o":"m 14 485 q 74 656 14 589 q 250 722 133 722 q 353 704 308 722 q 428 655 399 686 q 474 580 458 624 q 490 485 490 536 l 490 222 q 474 128 490 171 q 428 53 458 85 q 353 4 399 22 q 250 -14 308 -14 q 147 3 192 -14 q 74 52 103 21 q 29 127 44 83 q 14 222 14 171 l 14 485 m 224 211 q 253 167 224 167 q 281 211 281 167 l 281 497 q 253 542 281 542 q 224 497 224 542 l 224 211 m 210 954 q 219 906 210 924 q 251 889 228 889 q 283 906 274 889 q 292 954 292 924 l 417 954 q 376 808 417 853 q 251 764 335 764 q 126 808 168 764 q 85 954 85 853 l 210 954 z "},"Ő":{"ha":540,"x_min":15,"x_max":525,"o":"m 15 731 q 81 922 15 858 q 267 986 147 986 q 456 922 388 986 q 525 731 525 857 l 525 243 q 456 51 525 117 q 267 -14 388 -14 q 81 51 147 -14 q 15 243 15 115 l 15 731 m 238 225 q 247 190 238 200 q 269 179 257 179 q 293 190 283 179 q 303 225 303 200 l 303 747 q 293 783 303 774 q 269 793 283 793 q 247 783 257 793 q 238 747 238 774 l 238 225 m 126 1028 l 172 1218 l 297 1218 l 228 1028 l 126 1028 m 276 1028 l 322 1218 l 447 1218 l 378 1028 l 276 1028 z "},"ő":{"ha":506,"x_min":14,"x_max":490,"o":"m 14 485 q 74 656 14 589 q 250 722 133 722 q 353 704 308 722 q 428 655 399 686 q 474 580 458 624 q 490 485 490 536 l 490 222 q 474 128 490 171 q 428 53 458 85 q 353 4 399 22 q 250 -14 308 -14 q 147 3 192 -14 q 74 52 103 21 q 29 127 44 83 q 14 222 14 171 l 14 485 m 224 211 q 253 167 224 167 q 281 211 281 167 l 281 497 q 253 542 281 542 q 224 497 224 542 l 224 211 m 107 764 l 153 954 l 278 954 l 208 764 l 107 764 m 257 764 l 303 954 l 428 954 l 358 764 l 257 764 z "},"Ŕ":{"ha":539,"x_min":17,"x_max":535,"o":"m 265 974 q 454 909 388 974 q 521 713 521 844 l 521 707 q 508 602 521 647 q 474 527 494 557 q 428 481 453 497 q 379 464 403 465 l 379 449 q 428 430 403 447 q 474 382 453 413 q 508 308 494 351 q 521 210 521 264 l 521 199 q 523 92 521 139 q 535 0 525 44 l 314 0 q 302 94 304 44 q 300 200 300 143 l 300 313 q 292 349 300 339 q 263 360 283 360 l 239 360 l 239 0 l 17 0 l 17 974 l 265 974 m 239 553 l 263 553 q 292 564 283 553 q 300 601 300 575 l 300 733 q 292 769 300 758 q 263 781 283 781 l 239 781 l 239 553 m 193 1028 l 239 1218 l 400 1218 l 331 1028 l 193 1028 z "},"ŕ":{"ha":390,"x_min":15,"x_max":382,"o":"m 225 610 l 231 610 q 279 690 246 658 q 363 722 313 722 q 372 722 367 722 q 382 721 376 722 l 382 513 q 363 515 372 514 q 344 515 354 515 q 253 481 282 515 q 225 379 225 446 l 225 0 l 15 0 l 15 708 l 225 708 l 225 610 m 126 764 l 172 954 l 333 954 l 264 764 l 126 764 z "},"Ŗ":{"ha":539,"x_min":17,"x_max":535,"o":"m 265 974 q 454 909 388 974 q 521 713 521 844 l 521 707 q 508 602 521 647 q 474 527 494 557 q 428 481 453 497 q 379 464 403 465 l 379 449 q 428 430 403 447 q 474 382 453 413 q 508 308 494 351 q 521 210 521 264 l 521 199 q 523 92 521 139 q 535 0 525 44 l 314 0 q 302 94 304 44 q 300 200 300 143 l 300 313 q 292 349 300 339 q 263 360 283 360 l 239 360 l 239 0 l 17 0 l 17 974 l 265 974 m 239 553 l 263 553 q 292 564 283 553 q 300 601 300 575 l 300 733 q 292 769 300 758 q 263 781 283 781 l 239 781 l 239 553 m 204 -56 l 374 -56 l 290 -246 l 182 -246 l 204 -56 z "},"ŗ":{"ha":390,"x_min":15,"x_max":382,"o":"m 225 610 l 231 610 q 279 690 246 658 q 363 722 313 722 q 372 722 367 722 q 382 721 376 722 l 382 513 q 363 515 372 514 q 344 515 354 515 q 253 481 282 515 q 225 379 225 446 l 225 0 l 15 0 l 15 708 l 225 708 l 225 610 m 49 -56 l 218 -56 l 135 -246 l 26 -246 l 49 -56 z "},"Ř":{"ha":539,"x_min":17,"x_max":535,"o":"m 265 974 q 454 909 388 974 q 521 713 521 844 l 521 707 q 508 602 521 647 q 474 527 494 557 q 428 481 453 497 q 379 464 403 465 l 379 449 q 428 430 403 447 q 474 382 453 413 q 508 308 494 351 q 521 210 521 264 l 521 199 q 523 92 521 139 q 535 0 525 44 l 314 0 q 302 94 304 44 q 300 200 300 143 l 300 313 q 292 349 300 339 q 263 360 283 360 l 239 360 l 239 0 l 17 0 l 17 974 l 265 974 m 239 553 l 263 553 q 292 564 283 553 q 300 601 300 575 l 300 733 q 292 769 300 758 q 263 781 283 781 l 239 781 l 239 553 m 401 1219 l 342 1029 l 190 1029 l 131 1219 l 246 1219 l 263 1143 l 269 1143 l 286 1219 l 401 1219 z "},"ř":{"ha":390,"x_min":15,"x_max":382,"o":"m 225 610 l 231 610 q 279 690 246 658 q 363 722 313 722 q 372 722 367 722 q 382 721 376 722 l 382 513 q 363 515 372 514 q 344 515 354 515 q 253 481 282 515 q 225 379 225 446 l 225 0 l 15 0 l 15 708 l 225 708 l 225 610 m 335 956 l 275 765 l 124 765 l 64 956 l 179 956 l 196 879 l 203 879 l 219 956 l 335 956 z "},"Ś":{"ha":540,"x_min":15,"x_max":525,"o":"m 301 633 l 301 747 q 271 793 301 793 q 239 747 239 793 l 239 675 q 242 644 239 657 q 256 618 244 631 q 291 591 268 606 q 354 556 314 576 l 396 536 q 458 494 433 517 q 498 440 483 471 q 519 365 513 408 q 525 263 525 322 l 525 243 q 458 53 525 119 q 267 -14 390 -14 q 80 51 144 -14 q 15 243 15 117 l 15 339 l 238 339 l 238 226 q 271 179 238 179 q 303 225 303 179 l 303 300 q 300 332 303 319 q 286 356 297 344 q 254 381 275 368 q 196 414 233 394 l 147 438 q 85 481 110 457 q 44 538 60 504 q 23 615 29 571 q 17 717 17 658 l 17 731 q 81 922 17 857 q 267 986 144 986 q 456 919 389 986 q 524 731 524 853 l 524 633 l 301 633 m 196 1028 l 242 1218 l 403 1218 l 333 1028 l 196 1028 z "},"ś":{"ha":506,"x_min":14,"x_max":490,"o":"m 279 463 l 279 497 q 250 540 279 540 q 224 500 224 540 l 224 499 q 233 462 224 474 q 275 439 243 450 l 369 394 q 461 327 432 367 q 490 217 490 288 l 490 196 q 474 117 490 154 q 427 50 458 79 q 351 3 396 21 q 247 -14 306 -14 q 147 3 190 -14 q 74 51 103 21 q 29 124 44 82 q 14 214 14 165 l 14 246 l 224 246 l 224 214 q 250 171 224 171 q 281 210 281 171 l 281 213 q 270 249 281 238 q 225 275 260 261 l 129 317 q 41 383 67 343 q 15 493 15 422 l 15 513 q 31 592 15 554 q 76 660 46 631 q 149 706 106 689 q 250 722 193 722 q 353 705 308 722 q 428 657 397 688 q 474 585 458 626 q 490 496 490 543 l 490 463 l 279 463 m 176 764 l 222 954 l 383 954 l 314 764 l 176 764 z "},"Ŝ":{"ha":540,"x_min":15,"x_max":525,"o":"m 301 633 l 301 747 q 271 793 301 793 q 239 747 239 793 l 239 675 q 242 644 239 657 q 256 618 244 631 q 291 591 268 606 q 354 556 314 576 l 396 536 q 458 494 433 517 q 498 440 483 471 q 519 365 513 408 q 525 263 525 322 l 525 243 q 458 53 525 119 q 267 -14 390 -14 q 80 51 144 -14 q 15 243 15 117 l 15 339 l 238 339 l 238 226 q 271 179 238 179 q 303 225 303 179 l 303 300 q 300 332 303 319 q 286 356 297 344 q 254 381 275 368 q 196 414 233 394 l 147 438 q 85 481 110 457 q 44 538 60 504 q 23 615 29 571 q 17 717 17 658 l 17 731 q 81 922 17 857 q 267 986 144 986 q 456 919 389 986 q 524 731 524 853 l 524 633 l 301 633 m 135 1028 l 194 1218 l 346 1218 l 406 1028 l 290 1028 l 274 1104 l 265 1104 l 250 1028 l 135 1028 z "},"ŝ":{"ha":506,"x_min":14,"x_max":490,"o":"m 279 463 l 279 497 q 250 540 279 540 q 224 500 224 540 l 224 499 q 233 462 224 474 q 275 439 243 450 l 369 394 q 461 327 432 367 q 490 217 490 288 l 490 196 q 474 117 490 154 q 427 50 458 79 q 351 3 396 21 q 247 -14 306 -14 q 147 3 190 -14 q 74 51 103 21 q 29 124 44 82 q 14 214 14 165 l 14 246 l 224 246 l 224 214 q 250 171 224 171 q 281 210 281 171 l 281 213 q 270 249 281 238 q 225 275 260 261 l 129 317 q 41 383 67 343 q 15 493 15 422 l 15 513 q 31 592 15 554 q 76 660 46 631 q 149 706 106 689 q 250 722 193 722 q 353 705 308 722 q 428 657 397 688 q 474 585 458 626 q 490 496 490 543 l 490 463 l 279 463 m 115 764 l 175 954 l 326 954 l 386 764 l 271 764 l 254 840 l 246 840 l 231 764 l 115 764 z "},"Ş":{"ha":540,"x_min":15,"x_max":525,"o":"m 301 633 l 301 747 q 271 793 301 793 q 239 747 239 793 l 239 675 q 242 644 239 657 q 256 618 244 631 q 291 591 268 606 q 354 556 314 576 l 396 536 q 458 494 433 517 q 498 440 483 471 q 519 365 513 408 q 525 263 525 322 l 525 243 q 458 53 525 119 q 267 -14 390 -14 q 80 51 144 -14 q 15 243 15 117 l 15 339 l 238 339 l 238 226 q 271 179 238 179 q 303 225 303 179 l 303 300 q 300 332 303 319 q 286 356 297 344 q 254 381 275 368 q 196 414 233 394 l 147 438 q 85 481 110 457 q 44 538 60 504 q 23 615 29 571 q 17 717 17 658 l 17 731 q 81 922 17 857 q 267 986 144 986 q 456 919 389 986 q 524 731 524 853 l 524 633 l 301 633 m 261 -1 l 344 -1 l 338 -68 q 440 -97 406 -68 q 475 -161 475 -125 q 434 -234 475 -201 q 313 -267 393 -267 q 265 -264 292 -267 q 210 -256 239 -261 l 210 -176 q 254 -181 233 -181 q 303 -172 283 -181 q 324 -149 324 -162 q 301 -127 324 -135 q 239 -119 279 -119 l 261 -1 z "},"ş":{"ha":506,"x_min":14,"x_max":490,"o":"m 279 463 l 279 497 q 250 540 279 540 q 224 500 224 540 l 224 499 q 233 462 224 474 q 275 439 243 450 l 369 394 q 461 327 432 367 q 490 217 490 288 l 490 196 q 474 117 490 154 q 427 50 458 79 q 351 3 396 21 q 247 -14 306 -14 q 147 3 190 -14 q 74 51 103 21 q 29 124 44 82 q 14 214 14 165 l 14 246 l 224 246 l 224 214 q 250 171 224 171 q 281 210 281 171 l 281 213 q 270 249 281 238 q 225 275 260 261 l 129 317 q 41 383 67 343 q 15 493 15 422 l 15 513 q 31 592 15 554 q 76 660 46 631 q 149 706 106 689 q 250 722 193 722 q 353 705 308 722 q 428 657 397 688 q 474 585 458 626 q 490 496 490 543 l 490 463 l 279 463 m 211 -1 l 294 -1 l 288 -68 q 390 -97 356 -68 q 425 -161 425 -125 q 384 -234 425 -201 q 263 -267 343 -267 q 215 -264 242 -267 q 160 -256 189 -261 l 160 -176 q 204 -181 183 -181 q 253 -172 233 -181 q 274 -149 274 -162 q 251 -127 274 -135 q 189 -119 229 -119 l 211 -1 z "},"Ţ":{"ha":503,"x_min":7,"x_max":497,"o":"m 497 779 l 364 779 l 364 0 l 142 0 l 142 779 l 7 779 l 7 972 l 497 972 l 497 779 m 213 10 l 296 10 l 289 -57 q 392 -85 357 -57 q 426 -150 426 -114 q 385 -223 426 -190 q 264 -256 344 -256 q 217 -253 243 -256 q 161 -244 190 -250 l 161 -165 q 206 -169 185 -169 q 255 -160 235 -169 q 275 -137 275 -151 q 253 -116 275 -124 q 190 -108 231 -108 l 213 10 z "},"ţ":{"ha":386,"x_min":1,"x_max":400,"o":"m 1 708 l 61 708 l 61 861 l 271 874 l 271 708 l 379 708 l 379 528 l 271 528 l 271 236 q 291 187 271 200 q 338 174 311 174 q 379 179 361 174 l 381 -1 q 264 -14 318 -14 q 181 -2 218 -14 q 117 38 143 10 q 76 111 90 65 q 61 225 61 157 l 61 528 l 1 528 l 1 708 m 186 -1 l 269 -1 l 263 -68 q 365 -97 331 -68 q 400 -161 400 -125 q 359 -234 400 -201 q 238 -267 318 -267 q 190 -264 217 -267 q 135 -256 164 -261 l 135 -176 q 179 -181 158 -181 q 228 -172 208 -181 q 249 -149 249 -162 q 226 -127 249 -135 q 164 -119 204 -119 l 186 -1 z "},"Ť":{"ha":503,"x_min":7,"x_max":497,"o":"m 497 779 l 364 779 l 364 0 l 142 0 l 142 779 l 7 779 l 7 972 l 497 972 l 497 779 m 386 1219 l 326 1029 l 175 1029 l 115 1219 l 231 1219 l 247 1143 l 254 1143 l 271 1219 l 386 1219 z "},"ť":{"ha":386,"x_min":1,"x_max":465,"o":"m 1 708 l 61 708 l 61 861 l 271 874 l 271 708 l 379 708 l 379 528 l 271 528 l 271 236 q 291 187 271 200 q 338 174 311 174 q 379 179 361 174 l 381 -1 q 264 -14 318 -14 q 181 -2 218 -14 q 117 38 143 10 q 76 111 90 65 q 61 225 61 157 l 61 528 l 1 528 l 1 708 m 332 986 l 465 986 l 399 765 l 303 765 l 332 986 z "},"Ŧ":{"ha":503,"x_min":7,"x_max":497,"o":"m 497 779 l 364 779 l 364 0 l 142 0 l 142 779 l 7 779 l 7 972 l 497 972 l 497 779 m 421 371 l 83 371 l 83 515 l 421 515 l 421 371 z "},"ŧ":{"ha":386,"x_min":1,"x_max":381,"o":"m 1 708 l 61 708 l 61 861 l 271 874 l 271 708 l 379 708 l 379 528 l 271 528 l 271 236 q 291 187 271 200 q 338 174 311 174 q 379 179 361 174 l 381 -1 q 264 -14 318 -14 q 181 -2 218 -14 q 117 38 143 10 q 76 111 90 65 q 61 225 61 157 l 61 528 l 1 528 l 1 708 m 379 331 l 1 331 l 1 450 l 379 450 l 379 331 z "},"Ũ":{"ha":536,"x_min":15,"x_max":521,"o":"m 238 972 l 238 225 q 247 190 238 200 q 268 179 256 179 q 290 190 281 179 q 299 225 299 200 l 299 972 l 521 972 l 521 243 q 453 51 521 117 q 264 -14 385 -14 q 80 51 144 -14 q 15 243 15 115 l 15 972 l 238 972 m 403 1203 q 385 1069 403 1111 q 333 1028 368 1028 q 297 1037 315 1028 q 263 1060 279 1046 l 257 1064 q 231 1081 243 1075 q 210 1088 219 1088 q 186 1043 186 1088 l 186 1033 l 135 1033 l 135 1044 q 153 1173 135 1128 q 207 1218 171 1218 q 240 1210 222 1218 q 274 1189 257 1201 l 279 1185 q 306 1167 294 1174 q 329 1161 318 1161 q 354 1203 354 1161 l 354 1214 l 403 1214 l 403 1203 z "},"ũ":{"ha":506,"x_min":14,"x_max":490,"o":"m 490 0 l 281 0 l 281 71 l 265 71 q 146 -14 224 -14 q 53 31 92 -14 q 14 174 14 75 l 14 708 l 224 708 l 224 199 q 249 164 224 164 q 281 190 268 164 l 281 708 l 490 708 l 490 0 m 385 939 q 367 806 385 847 q 315 764 350 764 q 279 773 297 764 q 244 796 261 782 l 239 800 q 213 817 225 811 q 192 824 201 824 q 168 779 168 824 l 168 769 l 117 769 l 117 781 q 135 909 117 864 q 189 954 153 954 q 222 946 204 954 q 256 925 239 938 l 261 921 q 288 903 276 910 q 311 897 300 897 q 336 939 336 897 l 336 950 l 385 950 l 385 939 z "},"Ū":{"ha":536,"x_min":15,"x_max":521,"o":"m 238 972 l 238 225 q 247 190 238 200 q 268 179 256 179 q 290 190 281 179 q 299 225 299 200 l 299 972 l 521 972 l 521 243 q 453 51 521 117 q 264 -14 385 -14 q 80 51 144 -14 q 15 243 15 115 l 15 972 l 238 972 m 418 1043 l 118 1043 l 118 1204 l 418 1204 l 418 1043 z "},"ū":{"ha":506,"x_min":14,"x_max":490,"o":"m 490 0 l 281 0 l 281 71 l 265 71 q 146 -14 224 -14 q 53 31 92 -14 q 14 174 14 75 l 14 708 l 224 708 l 224 199 q 249 164 224 164 q 281 190 268 164 l 281 708 l 490 708 l 490 0 m 400 779 l 100 779 l 100 940 l 400 940 l 400 779 z "},"Ŭ":{"ha":536,"x_min":15,"x_max":521,"o":"m 238 972 l 238 225 q 247 190 238 200 q 268 179 256 179 q 290 190 281 179 q 299 225 299 200 l 299 972 l 521 972 l 521 243 q 453 51 521 117 q 264 -14 385 -14 q 80 51 144 -14 q 15 243 15 115 l 15 972 l 238 972 m 228 1218 q 237 1170 228 1188 q 269 1153 246 1153 q 301 1170 292 1153 q 310 1218 310 1188 l 435 1218 q 394 1072 435 1117 q 269 1028 353 1028 q 144 1072 186 1028 q 103 1218 103 1117 l 228 1218 z "},"ŭ":{"ha":506,"x_min":14,"x_max":490,"o":"m 490 0 l 281 0 l 281 71 l 265 71 q 146 -14 224 -14 q 53 31 92 -14 q 14 174 14 75 l 14 708 l 224 708 l 224 199 q 249 164 224 164 q 281 190 268 164 l 281 708 l 490 708 l 490 0 m 210 954 q 219 906 210 924 q 251 889 228 889 q 283 906 274 889 q 292 954 292 924 l 417 954 q 376 808 417 853 q 251 764 335 764 q 126 808 168 764 q 85 954 85 853 l 210 954 z "},"Ů":{"ha":536,"x_min":15,"x_max":521,"o":"m 238 972 l 238 225 q 247 190 238 200 q 268 179 256 179 q 290 190 281 179 q 299 225 299 200 l 299 972 l 521 972 l 521 243 q 453 51 521 117 q 264 -14 385 -14 q 80 51 144 -14 q 15 243 15 115 l 15 972 l 238 972 m 151 1124 q 183 1199 151 1175 q 268 1224 214 1224 q 354 1199 322 1224 q 386 1124 386 1174 q 355 1047 386 1071 q 269 1022 324 1022 q 183 1047 214 1022 q 151 1124 151 1071 m 221 1124 q 269 1085 221 1085 q 317 1124 317 1085 q 303 1152 317 1143 q 268 1161 290 1161 q 221 1124 221 1161 z "},"ů":{"ha":506,"x_min":14,"x_max":490,"o":"m 490 0 l 281 0 l 281 71 l 265 71 q 146 -14 224 -14 q 53 31 92 -14 q 14 174 14 75 l 14 708 l 224 708 l 224 199 q 249 164 224 164 q 281 190 268 164 l 281 708 l 490 708 l 490 0 m 133 860 q 165 935 133 911 q 250 960 196 960 q 336 935 304 960 q 368 860 368 910 q 337 783 368 807 q 251 758 306 758 q 165 783 196 758 q 133 860 133 807 m 203 860 q 251 821 203 821 q 299 860 299 821 q 285 888 299 879 q 250 897 272 897 q 203 860 203 897 z "},"Ű":{"ha":536,"x_min":15,"x_max":521,"o":"m 238 972 l 238 225 q 247 190 238 200 q 268 179 256 179 q 290 190 281 179 q 299 225 299 200 l 299 972 l 521 972 l 521 243 q 453 51 521 117 q 264 -14 385 -14 q 80 51 144 -14 q 15 243 15 115 l 15 972 l 238 972 m 125 1028 l 171 1218 l 296 1218 l 226 1028 l 125 1028 m 275 1028 l 321 1218 l 446 1218 l 376 1028 l 275 1028 z "},"ű":{"ha":506,"x_min":14,"x_max":490,"o":"m 490 0 l 281 0 l 281 71 l 265 71 q 146 -14 224 -14 q 53 31 92 -14 q 14 174 14 75 l 14 708 l 224 708 l 224 199 q 249 164 224 164 q 281 190 268 164 l 281 708 l 490 708 l 490 0 m 107 764 l 153 954 l 278 954 l 208 764 l 107 764 m 257 764 l 303 954 l 428 954 l 358 764 l 257 764 z "},"Ų":{"ha":536,"x_min":15,"x_max":521,"o":"m 238 972 l 238 225 q 247 190 238 200 q 268 179 256 179 q 290 190 281 179 q 299 225 299 200 l 299 972 l 521 972 l 521 243 q 453 51 521 117 q 264 -14 385 -14 q 80 51 144 -14 q 15 243 15 115 l 15 972 l 238 972 m 363 10 l 363 -1 q 305 -26 326 -1 q 283 -79 283 -51 q 297 -117 283 -101 q 338 -132 310 -132 q 365 -128 351 -132 l 365 -235 q 286 -246 318 -246 q 179 -213 215 -246 q 143 -136 143 -181 q 157 -84 143 -110 q 198 -37 171 -58 q 267 -3 225 -17 q 363 10 308 10 z "},"ų":{"ha":506,"x_min":14,"x_max":490,"o":"m 490 0 l 281 0 l 281 71 l 265 71 q 146 -14 224 -14 q 53 31 92 -14 q 14 174 14 75 l 14 708 l 224 708 l 224 199 q 249 164 224 164 q 281 190 268 164 l 281 708 l 490 708 l 490 0 m 488 10 l 488 -1 q 430 -26 451 -1 q 408 -79 408 -51 q 422 -117 408 -101 q 463 -132 435 -132 q 490 -128 476 -132 l 490 -235 q 411 -246 443 -246 q 304 -213 340 -246 q 268 -136 268 -181 q 282 -84 268 -110 q 323 -37 296 -58 q 392 -3 350 -17 q 488 10 433 10 z "},"Ŵ":{"ha":710,"x_min":6,"x_max":704,"o":"m 228 972 l 236 385 l 251 385 l 282 972 l 426 972 l 458 385 l 474 385 l 482 972 l 704 972 l 625 0 l 378 0 l 360 410 l 344 410 l 326 0 l 81 0 l 6 972 l 228 972 m 218 1028 l 278 1218 l 429 1218 l 489 1028 l 374 1028 l 357 1104 l 349 1104 l 333 1028 l 218 1028 z "},"ŵ":{"ha":686,"x_min":6,"x_max":679,"o":"m 215 708 l 224 296 l 239 296 l 271 708 l 415 708 l 447 296 l 463 296 l 469 708 l 679 708 l 592 0 l 369 0 l 350 279 l 336 279 l 317 0 l 94 0 l 6 708 l 215 708 m 208 764 l 268 954 l 419 954 l 479 764 l 364 764 l 347 840 l 339 840 l 324 764 l 208 764 z "},"Ŷ":{"ha":517,"x_min":6,"x_max":511,"o":"m 228 972 l 251 574 l 267 574 l 289 972 l 511 972 l 368 267 l 368 0 l 146 0 l 146 267 l 6 972 l 228 972 m 122 1028 l 182 1218 l 333 1218 l 393 1028 l 278 1028 l 261 1104 l 253 1104 l 238 1028 l 122 1028 z "},"ŷ":{"ha":506,"x_min":15,"x_max":492,"o":"m 492 -79 q 430 -236 492 -181 q 256 -292 368 -292 q 80 -235 143 -292 q 17 -79 17 -179 l 17 -40 l 226 -40 l 226 -68 q 254 -111 226 -111 q 282 -65 282 -111 l 282 71 l 267 71 q 147 -14 225 -14 q 54 31 93 -14 q 15 174 15 75 l 15 708 l 225 708 l 225 199 q 250 164 225 164 q 282 190 269 164 l 282 708 l 492 708 l 492 -79 m 115 764 l 175 954 l 326 954 l 386 764 l 271 764 l 254 840 l 246 840 l 231 764 l 115 764 z "},"Ź":{"ha":474,"x_min":8,"x_max":467,"o":"m 451 972 l 451 778 l 236 204 l 244 193 l 467 193 l 467 0 l 8 0 l 8 193 l 224 768 l 214 779 l 22 779 l 22 972 l 451 972 m 164 1028 l 210 1218 l 371 1218 l 301 1028 l 164 1028 z "},"ź":{"ha":438,"x_min":13,"x_max":425,"o":"m 13 0 l 13 179 l 183 514 l 178 528 l 21 528 l 21 708 l 414 708 l 414 529 l 243 193 l 251 181 l 425 181 l 425 0 l 13 0 m 151 763 l 197 953 l 358 953 l 289 763 l 151 763 z "},"Ż":{"ha":474,"x_min":8,"x_max":467,"o":"m 451 972 l 451 778 l 236 204 l 244 193 l 467 193 l 467 0 l 8 0 l 8 193 l 224 768 l 214 779 l 22 779 l 22 972 l 451 972 m 146 1124 q 165 1192 146 1167 q 236 1217 183 1217 q 308 1191 288 1217 q 328 1122 328 1165 q 308 1054 328 1079 q 238 1029 289 1029 q 165 1054 185 1029 q 146 1124 146 1079 z "},"ż":{"ha":438,"x_min":13,"x_max":425,"o":"m 13 0 l 13 179 l 183 514 l 178 528 l 21 528 l 21 708 l 414 708 l 414 529 l 243 193 l 251 181 l 425 181 l 425 0 l 13 0 m 133 858 q 152 926 133 901 q 224 951 171 951 q 295 926 275 951 q 315 857 315 900 q 296 789 315 814 q 225 764 276 764 q 153 789 172 764 q 133 858 133 814 z "},"ſ":{"ha":692,"x_min":17,"x_max":675,"o":"m 17 972 l 675 972 l 675 0 l 17 0 l 17 972 m 346 543 l 564 903 l 128 903 l 346 543 m 86 115 l 311 486 l 86 857 l 86 115 m 606 115 l 606 857 l 381 486 l 606 115 m 128 69 l 564 69 l 346 429 l 128 69 z "},"̦":{"ha":226,"x_min":18,"x_max":210,"o":"m 40 -14 l 210 -14 l 126 -204 l 18 -204 l 40 -14 z "},"ȷ":{"ha":246,"x_min":-60,"x_max":226,"o":"m 226 -51 q 174 -233 226 -174 q 31 -292 121 -292 q -60 -279 -12 -292 l -60 -99 q -47 -101 -53 -101 q -36 -101 -42 -101 q 2 -90 -12 -101 q 17 -53 17 -79 l 17 708 l 226 708 l 226 -51 z "}}}
